<svg width="24" height="24" viewBox="0 0 24 24" fill="none" xmlns="http://www.w3.org/2000/svg">
  <g clip-path="url(#clip0_99_1474)">
    <path d="M6.30666 12.0001C6.30945 11.1036 6.40552 10.2099 6.59333 9.3334H4.19333C4.31693 8.96777 4.46619 8.61133 4.63999 8.26673H6.87333C7.29316 6.8641 7.94434 5.54146 8.79999 4.3534C9.34667 4.12353 9.91667 3.95365 10.5 3.84673C9.32777 5.10622 8.44295 6.60519 7.90666 8.24007H11.5V3.7334H12.5V8.24673H16.0933C15.5559 6.6089 14.6688 5.10753 13.4933 3.84673C14.0741 3.95187 14.6419 4.11951 15.1867 4.34673C16.0457 5.52981 16.7014 6.8479 17.1267 8.24673H19.3733C19.5503 8.59762 19.7018 8.96078 19.8267 9.3334H17.4067C17.5945 10.2099 17.6905 11.1036 17.6933 12.0001C17.6915 12.9806 17.5797 13.9578 17.36 14.9134H19.72C19.5821 15.2871 19.4172 15.6503 19.2267 16.0001H17.0733C16.6652 17.2773 16.0601 18.4829 15.28 19.5734C14.7213 19.813 14.1377 19.9897 13.54 20.1001C14.628 18.9132 15.4648 17.5186 16 16.0001H12.4933V20.2267H11.4933V16.0001H7.99999C8.53698 17.5192 9.37607 18.9139 10.4667 20.1001C9.8661 19.9858 9.28023 19.8047 8.71999 19.5601C7.9411 18.4737 7.33608 17.2726 6.92666 16.0001H4.79333C4.60367 15.6567 4.4388 15.3003 4.3 14.9334H6.66666C6.43651 13.9723 6.31574 12.9883 6.30666 12.0001ZM12.5 14.9134H16.3267C16.796 13.0786 16.8166 11.1578 16.3867 9.3134H12.5V14.9134ZM7.67333 14.9134H11.5V9.3334H7.61333C7.42182 10.2092 7.32791 11.1036 7.33333 12.0001C7.32791 12.9814 7.44208 13.9597 7.67333 14.9134Z" fill="green"/>
    <path d="M12 1.33325C14.1097 1.33325 16.172 1.95884 17.9261 3.13091C19.6802 4.30298 21.0474 5.96888 21.8547 7.91796C22.6621 9.86704 22.8733 12.0118 22.4617 14.0809C22.0501 16.15 21.0342 18.0506 19.5425 19.5424C18.0507 21.0342 16.1501 22.0501 14.081 22.4616C12.0118 22.8732 9.86714 22.662 7.91806 21.8546C5.96898 21.0473 4.30308 19.6801 3.13101 17.926C1.95894 16.1719 1.33335 14.1096 1.33335 11.9999C1.33335 9.17094 2.45716 6.45783 4.45754 4.45745C6.45793 2.45706 9.17104 1.33325 12 1.33325ZM12 21.3333C13.846 21.3333 15.6505 20.7859 17.1853 19.7603C18.7202 18.7347 19.9165 17.2771 20.6229 15.5716C21.3293 13.8662 21.5141 11.9896 21.154 10.1791C20.7939 8.36859 19.905 6.70554 18.5997 5.40025C17.2944 4.09496 15.6313 3.20605 13.8209 2.84592C12.0104 2.48579 10.1337 2.67063 8.4283 3.37704C6.72286 4.08346 5.26519 5.27974 4.23963 6.8146C3.21407 8.34945 2.66668 10.154 2.66668 11.9999C2.66668 14.4753 3.65001 16.8492 5.40035 18.5996C7.15069 20.3499 9.52466 21.3333 12 21.3333Z" fill="green"/>
  </g>
  <defs>
    <clipPath id="clip0_99_1474">
      <rect width="24" height="24" fill="white" transform="matrix(-1 0 0 1 24 0)"/>
    </clipPath>
  </defs>
</svg>