<svg width="31" height="30" viewBox="0 0 31 30" fill="none" xmlns="http://www.w3.org/2000/svg">
<path fill-rule="evenodd" clip-rule="evenodd" d="M21.2747 0.750972C22.2212 0.750972 23.1662 0.884472 24.0647 1.18597C29.6012 2.98597 31.5962 9.06097 29.9297 14.371C28.9847 17.0845 27.4397 19.561 25.4162 21.5845C22.5197 24.3895 19.3412 26.8795 15.9197 29.0245L15.5447 29.251L15.1547 29.0095C11.7212 26.8795 8.5247 24.3895 5.6012 21.5695C3.5912 19.546 2.0447 17.0845 1.0847 14.371C-0.610303 9.06097 1.3847 2.98597 6.9812 1.15447C7.4162 1.00447 7.8647 0.899472 8.3147 0.840972H8.4947C8.9162 0.779472 9.3347 0.750972 9.7547 0.750972H9.9197C10.8647 0.779472 11.7797 0.944472 12.6662 1.24597H12.7547C12.8147 1.27447 12.8597 1.30597 12.8897 1.33447C13.2212 1.44097 13.5347 1.56097 13.8347 1.72597L14.4047 1.98097C14.5424 2.05443 14.697 2.16667 14.8306 2.26368C14.9153 2.32514 14.9915 2.38048 15.0497 2.41597C15.0742 2.43041 15.0991 2.44494 15.1241 2.45958C15.2528 2.53465 15.3867 2.61286 15.4997 2.69947C17.1662 1.42597 19.1897 0.735972 21.2747 0.750972ZM25.2647 11.551C25.8797 11.5345 26.4047 11.041 26.4497 10.4095V10.231C26.4947 8.12947 25.2212 6.22597 23.2847 5.49097C22.6697 5.27947 21.9947 5.61097 21.7697 6.24097C21.5597 6.87097 21.8897 7.56097 22.5197 7.78447C23.4812 8.14447 24.1247 9.09097 24.1247 10.1395V10.186C24.0962 10.5295 24.1997 10.861 24.4097 11.116C24.6197 11.371 24.9347 11.5195 25.2647 11.551Z" fill="#436850"/>
</svg>
