<svg width="31" height="33" viewBox="0 0 31 33" fill="none" xmlns="http://www.w3.org/2000/svg">
<mask id="mask0_274_150" style="mask-type:luminance" maskUnits="userSpaceOnUse" x="0" y="0" width="31" height="33">
<path fill-rule="evenodd" clip-rule="evenodd" d="M0 0.500244H30.7497V32.7577H0V0.500244Z" fill="white"/>
</mask>
<g mask="url(#mask0_274_150)">
<path fill-rule="evenodd" clip-rule="evenodd" d="M17.5752 21.9369C19.3812 21.9369 20.8512 23.3964 20.8512 25.1904V29.8044C20.8512 30.1899 21.1602 30.4989 21.5562 30.5079H24.4152C26.6682 30.5079 28.4997 28.6989 28.4997 26.4759V13.3899C28.4892 12.6249 28.1247 11.9049 27.4992 11.4264L17.6097 3.53938C16.2822 2.48788 14.4252 2.48788 13.0932 3.54238L3.27119 11.4234C2.62169 11.9169 2.25719 12.6369 2.24969 13.4154V26.4759C2.24969 28.6989 4.08119 30.5079 6.3342 30.5079H9.22019C9.62669 30.5079 9.95669 30.1854 9.95669 29.7894C9.95669 29.7024 9.96719 29.6154 9.9852 29.5329V25.1904C9.9852 23.4069 11.4462 21.9489 13.2387 21.9369H17.5752ZM24.4152 32.7579H21.5292C19.8762 32.7189 18.6012 31.4214 18.6012 29.8044V25.1904C18.6012 24.6369 18.1407 24.1869 17.5752 24.1869H13.2462C12.6927 24.1899 12.2352 24.6414 12.2352 25.1904V29.7894C12.2352 29.9019 12.2202 30.0099 12.1887 30.1119C12.0267 31.5969 10.7577 32.7579 9.22019 32.7579H6.33419C2.84069 32.7579 -0.000305176 29.9394 -0.000305176 26.4759V13.4049C0.0146948 11.9139 0.701695 10.5489 1.88819 9.65037L11.6907 1.78288C13.8492 0.0728753 16.8567 0.0728752 19.0107 1.77988L28.8837 9.65487C30.0432 10.5384 30.7302 11.9004 30.7497 13.3734V26.4759C30.7497 29.9394 27.9087 32.7579 24.4152 32.7579Z" fill="#3C3C3C" fill-opacity="0.5"/>
</g>
</svg>
