<svg width="25" height="26" viewBox="0 0 25 26" fill="none" xmlns="http://www.w3.org/2000/svg">
<path d="M8.12504 2.58325H16.875C20.2084 2.58325 22.9167 5.29159 22.9167 8.62492V17.3749C22.9167 18.9773 22.2802 20.514 21.1471 21.647C20.0141 22.7801 18.4774 23.4166 16.875 23.4166H8.12504C4.79171 23.4166 2.08337 20.7083 2.08337 17.3749V8.62492C2.08337 7.02257 2.71991 5.48585 3.85294 4.35282C4.98597 3.21978 6.52269 2.58325 8.12504 2.58325ZM7.91671 4.66659C6.92215 4.66659 5.96832 5.06167 5.26506 5.76493C4.5618 6.4682 4.16671 7.42202 4.16671 8.41658V17.5833C4.16671 19.6562 5.84379 21.3333 7.91671 21.3333H17.0834C18.0779 21.3333 19.0318 20.9382 19.735 20.2349C20.4383 19.5316 20.8334 18.5778 20.8334 17.5833V8.41658C20.8334 6.34367 19.1563 4.66659 17.0834 4.66659H7.91671ZM17.9688 6.22909C18.3141 6.22909 18.6453 6.36627 18.8895 6.61046C19.1337 6.85464 19.2709 7.18583 19.2709 7.53117C19.2709 7.8765 19.1337 8.20769 18.8895 8.45188C18.6453 8.69607 18.3141 8.83325 17.9688 8.83325C17.6235 8.83325 17.2923 8.69607 17.0481 8.45188C16.8039 8.20769 16.6667 7.8765 16.6667 7.53117C16.6667 7.18583 16.8039 6.85464 17.0481 6.61046C17.2923 6.36627 17.6235 6.22909 17.9688 6.22909ZM12.5 7.79158C13.8814 7.79158 15.2061 8.34032 16.1829 9.31707C17.1596 10.2938 17.7084 11.6186 17.7084 12.9999C17.7084 14.3813 17.1596 15.706 16.1829 16.6828C15.2061 17.6595 13.8814 18.2083 12.5 18.2083C11.1187 18.2083 9.79395 17.6595 8.81719 16.6828C7.84044 15.706 7.29171 14.3813 7.29171 12.9999C7.29171 11.6186 7.84044 10.2938 8.81719 9.31707C9.79395 8.34032 11.1187 7.79158 12.5 7.79158ZM12.5 9.87492C11.6712 9.87492 10.8764 10.2042 10.2903 10.7902C9.70428 11.3763 9.37504 12.1711 9.37504 12.9999C9.37504 13.8287 9.70428 14.6236 10.2903 15.2096C10.8764 15.7957 11.6712 16.1249 12.5 16.1249C13.3288 16.1249 14.1237 15.7957 14.7098 15.2096C15.2958 14.6236 15.625 13.8287 15.625 12.9999C15.625 12.1711 15.2958 11.3763 14.7098 10.7902C14.1237 10.2042 13.3288 9.87492 12.5 9.87492Z" fill="white"/>
</svg>
