<svg width="22" height="23" viewBox="0 0 22 23" fill="none" xmlns="http://www.w3.org/2000/svg">
<path d="M6.36161 5.08327C6.36137 5.5695 6.16798 6.03572 5.82399 6.37937C5.48001 6.72301 5.01359 6.91593 4.52736 6.91569C4.04113 6.91545 3.57491 6.72206 3.23127 6.37807C2.88762 6.03408 2.6947 5.56767 2.69495 5.08144C2.69519 4.59521 2.88858 4.12899 3.23257 3.78535C3.57655 3.4417 4.04297 3.24878 4.5292 3.24902C5.01543 3.24927 5.48165 3.44265 5.82529 3.78664C6.16894 4.13063 6.36186 4.59704 6.36161 5.08327ZM6.41661 8.27327H2.74995V19.7499H6.41661V8.27327ZM12.2099 8.27327H8.56161V19.7499H12.1733V13.7274C12.1733 10.3724 16.5458 10.0608 16.5458 13.7274V19.7499H20.1666V12.4808C20.1666 6.82494 13.6949 7.03577 12.1733 9.81327L12.2099 8.27327Z" fill="white"/>
</svg>
