<svg width="18" height="19"  viewBox="0 0 18 19" fill="none" xmlns="http://www.w3.org/2000/svg">
  <path fill-rule="evenodd" clip-rule="evenodd" d="M9.00008 10.6213C7.86833 10.6213 6.94733 9.701 6.94733 8.56925C6.94733 7.4375 7.86833 6.5165 9.00008 6.5165C10.1318 6.5165 11.0521 7.4375 11.0521 8.56925C11.0521 9.701 10.1318 10.6213 9.00008 10.6213ZM13.2106 3.989C12.0623 2.80475 10.5668 2.15225 9.00008 2.15225C7.43183 2.15225 5.93633 2.80475 4.78733 3.98975C3.62108 5.19275 2.98058 6.809 3.03083 8.4245C3.17258 13.0025 8.56508 16.5673 8.79533 16.7165L8.99708 16.8478L9.20108 16.7188C9.43058 16.5733 14.8268 13.0948 14.9693 8.42375C15.0188 6.809 14.3776 5.192 13.2106 3.989Z" fill="green"/>
</svg>