<svg width="600" height="929" viewBox="0 0 600 929" fill="none" xmlns="http://www.w3.org/2000/svg">
<path d="M447.25 600C406.738 600 367.886 615.804 339.239 643.934C310.593 672.064 294.5 710.218 294.5 750C294.5 789.782 310.593 827.936 339.239 856.066C367.886 884.196 406.738 900 447.25 900L447.25 600Z" fill="#436850"/>
<path d="M-11 4.29074e-06C-11 39.7825 5.09324 77.9356 33.7394 106.066C62.3856 134.196 101.238 150 141.75 150C182.262 150 221.114 134.196 249.761 106.066C278.407 77.9356 294.5 39.7825 294.5 6.10352e-05L-11 4.29074e-06Z" fill="#211814"/>
<path d="M294.5 450C294.5 489.782 310.593 527.936 339.239 556.066C367.886 584.196 406.738 600 447.25 600C487.762 600 526.614 584.196 555.261 556.066C583.907 527.936 600 489.783 600 450L294.5 450Z" fill="#436850"/>
<path d="M-11 750C-11 789.782 5.09324 827.936 33.7394 856.066C62.3856 884.196 101.238 900 141.75 900C182.262 900 221.114 884.196 249.761 856.066C278.407 827.936 294.5 789.783 294.5 750L-11 750Z" fill="#436850"/>
<path d="M447.25 150C447.25 130.302 443.299 110.796 435.623 92.5975C427.946 74.3986 416.695 57.8628 402.511 43.934C388.326 30.0052 371.487 18.9563 352.955 11.4181C334.422 3.87986 314.559 -8.61039e-07 294.5 0L294.5 150H447.25Z" fill="#324E3C"/>
<path d="M447.25 450C447.25 430.302 443.299 410.796 435.623 392.597C427.946 374.399 416.695 357.863 402.511 343.934C388.326 330.005 371.487 318.956 352.955 311.418C334.422 303.88 314.559 300 294.5 300L294.5 450H447.25Z" fill="#324E3C"/>
<path d="M-11 1050C-11 1030.3 -7.04901 1010.8 0.627396 992.597C8.3038 974.399 19.5553 957.863 33.7394 943.934C47.9236 930.005 64.7626 918.956 83.2951 911.418C101.828 903.88 121.691 900 141.75 900L141.75 1050H-11Z" fill="#283E30"/>
<path d="M447.25 300C447.25 280.302 451.201 260.796 458.877 242.597C466.554 224.399 477.805 207.863 491.989 193.934C506.174 180.005 523.013 168.956 541.545 161.418C560.078 153.88 579.941 150 600 150L600 300H447.25Z" fill="#283E30"/>
<path d="M141.75 600C141.75 580.302 145.701 560.796 153.377 542.597C161.054 524.399 172.305 507.863 186.489 493.934C200.674 480.005 217.513 468.956 236.045 461.418C254.578 453.88 274.441 450 294.5 450L294.5 600H141.75Z" fill="#436850"/>
<path d="M600 450C600 430.302 596.049 410.796 588.373 392.597C580.696 374.399 569.445 357.863 555.261 343.934C541.076 330.005 524.237 318.956 505.705 311.418C487.172 303.88 467.309 300 447.25 300L447.25 450H600Z" fill="#436850"/>
<path d="M600 750C600 730.302 596.049 710.796 588.373 692.597C580.696 674.399 569.445 657.863 555.261 643.934C541.076 630.005 524.237 618.956 505.705 611.418C487.172 603.88 467.309 600 447.25 600L447.25 750H600Z" fill="#283E30"/>
<path d="M600 900C600 880.302 596.049 860.796 588.373 842.597C580.696 824.399 569.445 807.863 555.261 793.934C541.076 780.005 524.237 768.956 505.705 761.418C487.172 753.88 467.309 750 447.25 750L447.25 900H600Z" fill="#283E30"/>
<path d="M-11 600C-11 580.302 -7.04901 560.796 0.627396 542.597C8.3038 524.399 19.5553 507.863 33.7394 493.934C47.9236 480.005 64.7626 468.956 83.2951 461.418C101.828 453.88 121.691 450 141.75 450L141.75 600H-11Z" fill="#436850"/>
<path d="M600 150C600 130.302 596.049 110.796 588.373 92.5975C580.696 74.3986 569.445 57.8628 555.261 43.934C541.076 30.0052 524.237 18.9563 505.705 11.4181C487.172 3.87986 467.309 -8.61039e-07 447.25 0L447.25 150H600Z" fill="#324E3C"/>
<rect x="141.75" y="150" width="152.75" height="150" fill="#436850"/>
<rect x="294.5" y="900" width="152.75" height="150" fill="#436850"/>
<rect x="-11" y="600" width="152.75" height="150" fill="#324E3C"/>
<path d="M141.75 1050C141.75 1030.3 145.701 1010.8 153.377 992.597C161.054 974.399 172.305 957.863 186.489 943.934C200.674 930.005 217.513 918.956 236.045 911.418C254.578 903.88 274.441 900 294.5 900L294.5 1050H141.75Z" fill="#324E3C"/>
<rect x="-11" y="300" width="152.75" height="150" fill="#436850"/>
<rect x="294.5" y="150" width="152.75" height="150" fill="#436850"/>
<ellipse cx="65.375" cy="225" rx="76.375" ry="75" fill="#324E3C"/>
<ellipse cx="218.125" cy="375" rx="76.375" ry="75" fill="#283E30"/>
<ellipse cx="523.625" cy="975" rx="76.375" ry="75" fill="#436850"/>
<ellipse cx="218.125" cy="675" rx="76.375" ry="75" fill="#211814"/>
</svg>
