<svg xmlns="http://www.w3.org/2000/svg" viewBox="0 0 24 30" x="0px" y="0px"><path d="M19.5,9.328h-.01v-3.336c0-1.516-1.233-2.75-2.75-2.75H4.5c-1.517,0-2.75,1.234-2.75,2.75v5.93c0,1.517,1.233,2.75,2.75,2.75h.01v3.336c0,1.517,1.233,2.75,2.75,2.75h12.24c1.517,0,2.75-1.233,2.75-2.75v-5.93c0-1.516-1.233-2.75-2.75-2.75ZM3.25,5.992c0-.689,.561-1.25,1.25-1.25h12.24c.689,0,1.25,.561,1.25,1.25v.845H3.25v-.845Zm1.26,6.086v1.094h-.01c-.689,0-1.25-.561-1.25-1.25v-3.585h14.74v.991H7.26c-1.517,0-2.75,1.234-2.75,2.75Zm16.24,5.93c0,.689-.561,1.25-1.25,1.25H7.26c-.689,0-1.25-.561-1.25-1.25v-5.93c0-.689,.561-1.25,1.25-1.25h11.461c.007,0,.013,.004,.019,.004s.013-.004,.019-.004h.74c.689,0,1.25,.561,1.25,1.25v5.93Z"/><path d="M11.62,15.752h-2.88c-.414,0-.75,.336-.75,.75s.336,.75,.75,.75h2.88c.414,0,.75-.336,.75-.75s-.336-.75-.75-.75Z"/><text x="0" y="39" fill="#000000" font-size="5px" font-weight="bold" font-family="'Helvetica Neue', Helvetica, Arial-Unicode, Arial, Sans-serif">Created by Rini Bahtiar</text><text x="0" y="44" fill="#000000" font-size="5px" font-weight="bold" font-family="'Helvetica Neue', Helvetica, Arial-Unicode, Arial, Sans-serif">from the Noun Project</text></svg>