<svg width="369" height="355" viewBox="0 0 369 355" fill="none" xmlns="http://www.w3.org/2000/svg">
<path d="M318.525 165.76C318.525 167.258 318.054 168.723 317.172 169.968C316.289 171.214 315.035 172.185 313.568 172.758C312.1 173.332 310.486 173.482 308.928 173.189C307.371 172.897 305.94 172.176 304.817 171.116C303.694 170.057 302.929 168.707 302.619 167.238C302.309 165.768 302.468 164.245 303.076 162.861C303.684 161.477 304.713 160.294 306.034 159.461C307.354 158.629 308.907 158.185 310.495 158.185C312.625 158.185 314.667 158.983 316.173 160.403C317.679 161.824 318.525 163.751 318.525 165.76Z" fill="#EBEBEB"/>
<path d="M292.701 171.466C296.043 168.313 296.043 163.202 292.701 160.05C289.359 156.897 283.941 156.897 280.599 160.05C277.257 163.202 277.257 168.313 280.599 171.466C283.941 174.619 289.359 174.619 292.701 171.466Z" fill="#EBEBEB"/>
<path d="M268.328 160.045C273.341 160.045 277.405 156.212 277.405 151.483C277.405 146.754 273.341 142.921 268.328 142.921C263.315 142.921 259.252 146.754 259.252 151.483C259.252 156.212 263.315 160.045 268.328 160.045Z" fill="#EBEBEB"/>
<path d="M273.961 131.131C274.887 126.267 271.458 121.616 266.302 120.743C261.147 119.869 256.216 123.104 255.291 127.968C254.365 132.832 257.794 137.482 262.95 138.356C268.106 139.229 273.036 135.994 273.961 131.131Z" fill="#EBEBEB"/>
<path d="M276.222 119.57C281.634 119.57 286.022 115.431 286.022 110.325C286.022 105.22 281.634 101.081 276.222 101.081C270.81 101.081 266.423 105.22 266.423 110.325C266.423 115.431 270.81 119.57 276.222 119.57Z" fill="#EBEBEB"/>
<path d="M302.658 112.054C308.103 109.908 310.672 104.005 308.397 98.8688C306.121 93.7328 299.863 91.3093 294.419 93.4556C288.975 95.6019 286.405 101.505 288.681 106.641C290.956 111.777 297.214 114.201 302.658 112.054Z" fill="#EBEBEB"/>
<path d="M335.765 152.98C336.746 149.045 334.16 145.106 329.989 144.181C325.818 143.256 321.642 145.695 320.661 149.63C319.681 153.564 322.267 157.504 326.438 158.429C330.609 159.354 334.785 156.914 335.765 152.98Z" fill="#EBEBEB"/>
<path d="M334.938 135.6C338.649 134.259 340.505 130.333 339.083 126.832C337.662 123.331 333.5 121.58 329.789 122.921C326.077 124.262 324.221 128.188 325.643 131.689C327.065 135.19 331.226 136.941 334.938 135.6Z" fill="#EBEBEB"/>
<path d="M326.91 111.08C327.491 107.698 325.056 104.513 321.471 103.965C317.886 103.417 314.509 105.715 313.929 109.097C313.348 112.478 315.783 115.664 319.368 116.211C322.953 116.759 326.33 114.462 326.91 111.08Z" fill="#EBEBEB"/>
<path fill-rule="evenodd" clip-rule="evenodd" d="M88.0335 73.6204C89.9897 75.5946 91.6602 77.8045 93.0013 80.1925H100.929L103.881 92.2293L96.7356 95.4792C96.6409 98.18 96.1661 100.857 95.3236 103.44L100.955 108.712L93.988 119.208L86.5024 116.744C84.4147 118.593 82.0711 120.167 79.5355 121.423V128.909L66.7758 131.686L63.3732 124.945C60.5096 124.862 57.671 124.414 54.9348 123.613L49.3546 128.925L38.2281 122.361L40.8396 115.3C38.8834 113.326 37.2129 111.116 35.8718 108.728H27.9438L24.992 96.6909L32.1375 93.441C32.233 90.7403 32.7078 88.0636 33.5495 85.4807L27.9268 80.2086L34.8851 69.7125L42.3708 72.176C44.4622 70.3313 46.8051 68.758 49.3376 67.4977V60.0109L62.0973 57.2344L65.4999 63.975C68.3631 64.0612 71.2012 64.5092 73.9383 65.307L79.5185 59.9948L90.6535 66.5589L88.0335 73.6204ZM72.3816 83.4986C70.0206 82.1066 67.275 81.4062 64.4921 81.486C61.7091 81.5658 59.0138 82.4223 56.7468 83.9471C54.4798 85.4719 52.743 87.5966 51.756 90.0525C50.769 92.5085 50.5762 95.1853 51.2018 97.7446C51.8274 100.304 53.2434 102.631 55.2708 104.431C57.2983 106.231 59.846 107.424 62.5919 107.858C65.3378 108.292 68.1585 107.949 70.6975 106.871C73.2365 105.793 75.3796 104.029 76.856 101.803C77.8376 100.324 78.5006 98.6773 78.807 96.9567C79.1134 95.2362 79.0572 93.4755 78.6416 91.7755C78.226 90.0755 77.4592 88.4694 76.3851 87.0492C75.3109 85.6289 73.9505 84.4224 72.3816 83.4986Z" fill="#E0E0E0"/>
<path fill-rule="evenodd" clip-rule="evenodd" d="M95.7659 22.8822C96.8467 23.978 97.7704 25.2028 98.5135 26.5253H102.903L104.536 33.2017L100.572 34.9831C100.522 36.4807 100.259 37.9652 99.7894 39.3966L102.903 42.3095L99.0494 48.1193L94.9067 46.7551C93.7472 47.7771 92.4484 48.6487 91.0448 49.347V53.4957L83.9674 55.0284L82.0619 51.297C80.4772 51.2498 78.9064 51.0015 77.3919 50.5587L74.2955 53.5037L68.1368 49.8686L69.5829 45.9607C68.4996 44.8668 67.5756 43.6417 66.8354 42.3175H62.446L60.8128 35.6411L64.7938 33.8758C64.8446 32.3809 65.1078 30.8991 65.5764 29.4703L62.463 26.5574L66.308 20.7396L70.4591 22.1118C71.614 21.0881 72.9102 20.2163 74.3125 19.5199V15.3712L81.3729 13.8145L83.2869 17.5539C84.8708 17.6023 86.4411 17.8478 87.9569 18.2841L91.0533 15.3471L97.212 18.9822L95.7659 22.8902V22.8822ZM87.0978 28.3549C85.7911 27.5838 84.2714 27.1956 82.7309 27.2393C81.1903 27.2831 79.6981 27.7569 78.443 28.6007C77.1879 29.4446 76.2263 30.6206 75.6798 31.98C75.1332 33.3395 75.0264 34.8213 75.3727 36.2381C75.719 37.6548 76.5029 38.9429 77.6253 39.9393C78.7477 40.9357 80.1581 41.5958 81.6782 41.8359C83.1983 42.0761 84.7597 41.8857 86.165 41.2886C87.5703 40.6916 88.7564 39.7148 89.5732 38.4818C90.668 36.8291 91.0222 34.8339 90.5581 32.9349C90.0939 31.0359 88.8492 29.3885 87.0978 28.3549Z" fill="#E0E0E0"/>
<path d="M34.162 35.2326C34.162 35.2326 34.2896 35.2807 34.5192 35.4171C34.8467 35.6141 35.1492 35.8456 35.4209 36.1072C36.2886 36.9342 36.8843 37.9801 37.1363 39.1191C37.3884 40.2581 37.286 41.4415 36.8415 42.5269C36.4233 43.5432 35.7242 44.4354 34.817 45.1108C33.8044 45.8617 32.5793 46.3139 31.2953 46.4107C29.9133 46.5157 28.5323 46.1977 27.357 45.5039C26.1817 44.8101 25.2748 43.7774 24.7708 42.559C24.5203 41.9894 24.3708 41.3848 24.3285 40.7695C24.2789 40.1779 24.3248 39.5827 24.4646 39.0041C24.7132 37.936 25.2594 36.9499 26.0468 36.1474C26.7347 35.4547 27.5856 34.9242 28.5307 34.5986C29.9056 34.1338 31.409 34.1338 32.7839 34.5986C33.1537 34.7106 33.5079 34.8641 33.8387 35.056C34.0599 35.1925 34.179 35.2647 34.1705 35.2807C34.162 35.2968 33.6856 35.0159 32.7329 34.7351C31.3893 34.353 29.9488 34.4067 28.6413 34.8875C27.6962 35.2383 26.8573 35.8032 26.1986 36.5323C25.5399 37.2615 25.0817 38.1325 24.8644 39.0683C24.6141 40.1884 24.7237 41.3535 25.1791 42.4145C25.6609 43.5539 26.5125 44.5202 27.612 45.175C28.72 45.8189 30.0141 46.1192 31.3123 46.0336C31.9257 45.9959 32.5288 45.8659 33.0987 45.6484C33.651 45.4592 34.1678 45.1884 34.6298 44.8459C35.4435 44.2539 36.0865 43.4786 36.4997 42.591C36.9129 41.7035 37.0831 40.7322 36.9946 39.7664C36.8821 38.4469 36.304 37.201 35.3529 36.2276C34.6298 35.5295 34.1365 35.2647 34.162 35.2326Z" fill="#E0E0E0"/>
<path d="M41.1799 30.8026C41.1799 30.8026 41.1799 30.7304 41.2394 30.602C41.299 30.4736 41.3585 30.2489 41.4521 29.9921L42.3028 27.5848V27.657L37.2924 24.7441H37.42L34.9276 27.1514L34.8766 27.1996H34.8085C33.5885 26.8485 32.3238 26.6541 31.0487 26.6218H30.9891V26.5576L29.4325 23.5404L29.5941 23.6126L23.8607 24.8725L23.9798 24.728C23.9798 25.7632 23.9798 26.9107 23.9798 28.0823V28.1786H23.8862C22.7665 28.7426 21.7311 29.4442 20.8069 30.265L20.7303 30.3292H20.6283L17.2682 29.2298L17.4809 29.1576L14.359 33.876V33.6593L16.9109 36.0667L16.996 36.1389V36.2432C16.6263 37.3867 16.4175 38.5711 16.375 39.766V39.8783L16.2644 39.9265L12.9554 41.3147L13.066 41.1061C13.4828 42.8153 13.9166 44.6529 14.393 46.5146L14.1974 46.3702H17.7531H17.8722L17.9317 46.4745C18.5217 47.5313 19.2599 48.5084 20.1264 49.3794C20.1264 49.4676 20.1264 49.1948 20.1689 49.572V49.6201V49.7244L20.0923 49.925L19.9477 50.3182L19.65 51.1207L19.0631 52.7256L18.9865 52.5009L23.9713 55.4459H23.7246L26.2766 53.0385L26.3616 52.9583H26.4722C27.6831 53.3134 28.9392 53.5132 30.2065 53.5521H30.3256L30.3767 53.6484C30.8956 54.6675 31.4145 55.6786 31.9163 56.6737L31.7037 56.5774L37.4456 55.3336L37.3009 55.5021C37.3009 54.3626 37.3009 53.2472 37.3009 52.1478V52.0435L37.3945 51.9954C38.52 51.4388 39.5614 50.7425 40.4909 49.925L40.5674 49.8608H40.661L44.0636 50.9682L43.8679 51.0404C44.9653 49.3794 46.0116 47.8306 46.9983 46.3381V46.5146L44.4464 44.1073L44.3783 44.0431V43.9708C44.7595 42.8238 44.9741 41.6334 45.0163 40.432V40.3598H45.0844L48.2998 38.9074L48.2318 39.0358C47.7299 36.9414 47.3046 35.1519 46.9388 33.6192L47.0238 33.6834H43.3661C42.9134 32.9 42.3837 32.1585 41.7839 31.4686C41.5882 31.252 41.4436 31.0754 41.333 30.947C41.2787 30.8936 41.2275 30.8374 41.1799 30.7785C41.1799 30.7785 41.2479 30.8267 41.3585 30.931C41.4691 31.0353 41.6307 31.2038 41.8349 31.4285C42.4596 32.1313 43.0068 32.8922 43.4681 33.6995H43.4086H46.9643H47.0409V33.7637C47.4151 35.2963 47.8915 37.0778 48.3849 39.1722V39.2604H48.2998L45.1014 40.737L45.1694 40.6246C45.133 41.8489 44.9242 43.0633 44.5485 44.2357V44.0992L47.1004 46.4504L47.1855 46.5387L47.1259 46.635L44.0126 51.3454L43.9445 51.4577L43.8169 51.4096L40.4143 50.3102H40.5844C39.6385 51.1495 38.577 51.8648 37.4285 52.4367L37.5221 52.2923C37.5221 53.3916 37.5221 54.507 37.5221 55.6465V55.7829H37.3775L31.6697 57.0187H31.5251L31.457 56.8823C30.9466 55.8953 30.4362 54.8842 29.9088 53.8651L30.0789 53.9694C28.777 53.929 27.4866 53.7239 26.2425 53.3595H26.4382L23.9373 55.7669L23.8182 55.8712L23.6906 55.791L18.6973 52.846L18.5612 52.7657L18.6122 52.6213L19.1992 51.0164L19.4884 50.2139L19.6415 49.8127L19.7096 49.6121V49.5158V49.4676C19.7946 49.8448 19.7096 49.572 19.7521 49.6522C18.8584 48.76 18.0998 47.7554 17.4979 46.6671L17.668 46.7634H14.1123H13.9507V46.6189C13.4998 44.7572 13.049 42.9196 12.6322 41.2024V41.0579L12.7683 40.9937L16.0007 39.4932L15.8987 39.6536C15.9421 38.4261 16.1566 37.2093 16.5366 36.0346L16.5877 36.2111L14.0357 33.8038L13.9252 33.7075L14.0017 33.5871L17.2087 28.957L17.2852 28.8446H17.4213L20.7729 29.96H20.6027C21.5537 29.1251 22.6177 28.4127 23.7671 27.8416L23.6821 27.978C23.6821 26.8064 23.6821 25.6589 23.6821 24.6237V24.5034H23.8012L29.543 23.2676H29.6536L29.7047 23.3639C30.2406 24.4311 30.7595 25.4502 31.2443 26.3891L31.1252 26.3249C32.4219 26.3696 33.7064 26.5774 34.9447 26.9428H34.8256L37.3775 24.5355L37.437 24.4793H37.5051L42.4729 27.4484H42.5154L41.6137 29.7915C41.5117 30.0403 41.4351 30.2409 41.3755 30.3934C41.316 30.5458 41.1884 30.7946 41.1799 30.8026Z" fill="#E0E0E0"/>
<path d="M244.808 0.718661L219.799 0.606318C218.982 0.621964 218.177 0.789232 217.429 1.09857C216.68 1.40791 216.004 1.85325 215.439 2.40917C214.873 2.96508 214.429 3.62066 214.132 4.33847C213.835 5.05628 213.691 5.82224 213.708 6.59261V10.8697C213.723 11.639 213.577 12.4035 213.278 13.1195C212.979 13.8355 212.534 14.489 211.968 15.0427C211.401 15.5963 210.725 16.0393 209.977 16.3463C209.229 16.6533 208.424 16.8183 207.609 16.8319L158.858 16.6233C157.21 16.5813 155.648 15.9237 154.514 14.7952C153.379 13.6666 152.767 12.1594 152.81 10.6049V6.3278C152.854 4.77327 152.241 3.26607 151.107 2.13752C149.973 1.00897 148.41 0.351415 146.762 0.309409H137.966L116.071 0.172993C110.858 0.153783 105.851 2.0865 102.148 5.54684C98.4443 9.00718 96.3479 13.7123 96.3187 18.6294L94.9832 316.403C94.9605 321.323 97.008 326.049 100.676 329.546C104.344 333.042 109.333 335.023 114.548 335.052L243.285 335.606C248.5 335.627 253.511 333.694 257.217 330.232C260.922 326.77 263.019 322.061 263.046 317.142L264.381 19.3676C264.395 16.9306 263.899 14.5149 262.922 12.2586C261.946 10.0023 260.508 7.94964 258.69 6.21781C256.872 4.48598 254.711 3.10895 252.329 2.16539C249.947 1.22183 247.391 0.730223 244.808 0.718661Z" fill="white"/>
<path d="M244.808 0.718922C244.808 0.718922 245.037 0.718922 245.48 0.718922C246.149 0.724822 246.817 0.775772 247.479 0.871387C250.088 1.16995 252.599 1.9907 254.845 3.27874C256.513 4.20294 258.019 5.36409 259.311 6.72126C260.903 8.36735 262.168 10.27 263.046 12.3384C264.053 14.7344 264.542 17.2964 264.483 19.8735C264.483 22.6098 264.483 25.4906 264.483 28.6202C264.39 53.3598 264.254 89.1491 264.083 133.364C263.913 177.579 263.684 230.244 263.437 288.719C263.403 296.032 263.372 303.428 263.343 310.907C263.343 312.785 263.343 314.654 263.343 316.524C263.367 318.421 263.107 320.313 262.569 322.141C262.006 323.99 261.145 325.746 260.017 327.349C258.874 328.947 257.493 330.382 255.917 331.61C252.68 334.066 248.709 335.502 244.561 335.719C243.523 335.783 242.502 335.767 241.473 335.759H238.377H232.184L207.124 335.646L155.685 335.43L129.375 335.317L116.088 335.253C111.557 335.478 107.073 334.291 103.328 331.875C99.6049 329.413 96.8786 325.831 95.5956 321.716C94.9822 319.677 94.7152 317.559 94.8046 315.441V309.181C94.8386 300.852 94.8754 292.579 94.9151 284.362C94.9889 267.927 95.0626 251.747 95.1363 235.821C95.2809 204.004 95.4255 173.31 95.5616 144.069C95.6977 114.828 95.8338 87.0467 95.9529 61.0473C96.0153 48.0475 96.0749 35.5052 96.1316 23.4203C96.1316 21.9117 96.1316 20.4111 96.1316 18.9185C96.1316 18.1723 96.2081 17.4179 96.2507 16.6717C96.2932 15.9254 96.4548 15.1791 96.659 14.4649C97.3635 11.6124 98.7692 8.95603 100.763 6.7104C102.756 4.46476 105.281 2.69275 108.134 1.53742C110.892 0.430388 113.875 -0.0901572 116.87 0.0127633L134.028 0.0930103L142.254 0.173254H146.294C147.664 0.110806 149.018 0.474492 150.148 1.20842C151.25 1.94008 152.083 2.97803 152.529 4.17749C152.893 5.36484 153.02 6.6056 152.904 7.83667C152.904 8.43851 152.904 9.04035 152.904 9.64219C152.881 10.2339 152.9 10.8264 152.963 11.4156C153.113 12.5721 153.622 13.661 154.426 14.5452C155.209 15.4247 156.266 16.0482 157.446 16.3266C158.027 16.4622 158.626 16.5216 159.224 16.5032H161.036H168.139L194.092 16.6396L205.533 16.6957C206.435 16.6957 207.354 16.7439 208.213 16.6957C209.075 16.6034 209.903 16.3291 210.637 15.8933C211.341 15.4761 211.95 14.9305 212.428 14.2883C212.906 13.6462 213.243 12.9205 213.419 12.1539C213.562 11.4076 213.616 10.6486 213.58 9.89095C213.58 9.14467 213.58 8.39839 213.58 7.67618C213.549 6.95231 213.586 6.22723 213.691 5.50956C213.821 4.81388 214.074 4.1438 214.44 3.5275C215.138 2.3466 216.247 1.42855 217.578 0.927558C218.871 0.405964 220.241 0.574481 221.483 0.550408L234.243 0.630652L242.094 0.6788C243.863 0.6788 244.765 0.6788 244.765 0.6788H242.094H234.243H221.483C220.187 0.557153 218.879 0.685472 217.638 1.05595C216.334 1.54074 215.25 2.44064 214.576 3.59972C214.217 4.2004 213.97 4.85443 213.844 5.53363C213.746 6.24377 213.711 6.96056 213.742 7.67618C213.742 8.40641 213.742 9.14467 213.742 9.89095C213.776 10.6592 213.722 11.4287 213.58 12.186C213.4 12.9753 213.054 13.7226 212.564 14.3841C212.073 15.0455 211.447 15.6078 210.722 16.0377C209.965 16.4773 209.114 16.7515 208.23 16.8402C207.32 16.9124 206.435 16.8402 205.525 16.8402L194.143 16.8482L168.19 16.7519H161.087H159.267C158.646 16.7728 158.025 16.7134 157.421 16.5754C156.189 16.2839 155.086 15.6356 154.265 14.7217C153.426 13.7982 152.894 12.6624 152.734 11.4557C152.676 10.8555 152.656 10.2526 152.674 9.65021C152.674 9.04838 152.674 8.44654 152.674 7.8447C152.789 6.64329 152.665 5.43218 152.308 4.27378C151.877 3.12783 151.081 2.13566 150.029 1.4331C148.946 0.731652 147.648 0.387463 146.337 0.454111H142.296H134.036L116.887 0.381891C113.9 0.263666 110.924 0.791502 108.186 1.92503C105.448 3.05855 103.021 4.76774 101.091 6.92188C99.1087 9.1555 97.7102 11.7969 97.0077 14.6334C96.8036 15.3396 96.744 16.0779 96.5994 16.8001C96.4548 17.5223 96.4973 18.2686 96.4888 19.0148C96.4888 20.5074 96.4888 22.008 96.4888 23.5166C96.4435 35.5855 96.3924 48.1278 96.3357 61.1436C96.2251 87.143 96.106 114.908 95.987 144.173C95.8679 173.439 95.7233 204.1 95.5871 235.926C95.5191 251.83 95.4482 268.008 95.3745 284.458C95.3405 292.675 95.3036 300.951 95.2639 309.286C95.2639 311.361 95.2639 313.448 95.2639 315.545C95.1794 317.619 95.4406 319.694 96.038 321.692C97.288 325.69 99.9277 329.175 103.532 331.586C107.21 333.951 111.609 335.109 116.054 334.884L129.341 334.948L155.643 335.061L207.081 335.285L232.15 335.398H238.343H241.422C242.451 335.398 243.481 335.398 244.484 335.357C248.542 335.15 252.427 333.747 255.594 331.345C257.142 330.145 258.497 328.74 259.617 327.172C260.716 325.605 261.551 323.886 262.093 322.077C262.628 320.275 262.885 318.411 262.858 316.54V310.923C262.892 303.433 262.926 296.037 262.961 288.735C263.241 230.26 263.496 177.603 263.701 133.38C263.905 89.1572 264.117 53.3758 264.245 28.6362C264.245 25.5468 264.245 22.6259 264.296 19.8895C264.362 17.3272 263.882 14.7784 262.884 12.3946C262.014 10.362 260.769 8.49029 259.209 6.8657C256.136 3.68111 251.987 1.59968 247.47 0.975706C246.811 0.878925 246.146 0.819969 245.48 0.799166L244.808 0.718922Z" fill="#263238"/>
<path d="M221.696 94.4687L219.765 92.3102L225.515 89.3973L198.796 80.8672L207.839 105.294L211.131 101.225C211.131 101.225 228.416 129.921 211.131 147.366C193.965 164.691 173.702 160.936 173.702 160.936L177.607 172.973C177.607 172.973 209.455 175.107 226.544 147.952C243.634 120.797 221.696 94.4687 221.696 94.4687Z" fill="#436850"/>
<path d="M141.582 154.685L143.513 156.844L137.754 159.756L164.473 168.286L155.43 143.86L152.147 147.928C152.147 147.928 134.853 119.233 152.147 101.787C169.313 84.4623 189.575 88.2178 189.575 88.2178L185.671 76.181C185.671 76.181 153.814 74.0465 136.758 101.185C119.703 128.324 141.582 154.685 141.582 154.685Z" fill="#436850"/>
<path d="M221.696 94.4687L219.765 92.3102L225.515 89.3973L198.796 80.8672L207.839 105.294L211.131 101.225C211.131 101.225 228.416 129.921 211.131 147.366C193.965 164.691 173.702 160.936 173.702 160.936L177.607 172.973C177.607 172.973 209.455 175.107 226.544 147.952C243.634 120.797 221.696 94.4687 221.696 94.4687Z" fill="#436850"/>
<path d="M141.582 154.685L143.513 156.844L137.754 159.756L164.473 168.286L155.43 143.86L152.147 147.928C152.147 147.928 134.853 119.233 152.147 101.787C169.313 84.4623 189.575 88.2178 189.575 88.2178L185.671 76.181C185.671 76.181 153.814 74.0465 136.758 101.185C119.703 128.324 141.582 154.685 141.582 154.685Z" fill="#436850"/>
<g opacity="0.8">
<path d="M221.696 94.4687L219.765 92.3102L225.515 89.3973L198.796 80.8672L207.839 105.294L211.131 101.225C211.131 101.225 228.416 129.921 211.131 147.366C193.965 164.691 173.702 160.936 173.702 160.936L177.607 172.973C177.607 172.973 209.455 175.107 226.544 147.952C243.634 120.797 221.696 94.4687 221.696 94.4687Z" fill="white"/>
</g>
<g opacity="0.8">
<path d="M141.582 154.685L143.513 156.844L137.754 159.756L164.473 168.286L155.43 143.86L152.147 147.928C152.147 147.928 134.853 119.233 152.147 101.787C169.313 84.4623 189.575 88.2178 189.575 88.2178L185.671 76.181C185.671 76.181 153.814 74.0465 136.758 101.185C119.703 128.324 141.582 154.685 141.582 154.685Z" fill="white"/>
</g>
<path fill-rule="evenodd" clip-rule="evenodd" d="M196.874 110.327C198.14 111.606 199.218 113.039 200.081 114.588H205.185L207.09 122.396L202.471 124.506C202.409 126.254 202.1 127.987 201.552 129.658L205.202 133.068L200.693 139.857L195.844 138.252C194.494 139.451 192.977 140.471 191.336 141.285V146.1L183.085 147.914L180.856 143.548C179.015 143.49 177.19 143.201 175.429 142.69L171.814 146.124L164.609 141.879L166.31 137.305C165.044 136.03 163.965 134.599 163.103 133.052H157.999L156.094 125.244L160.713 123.142C160.774 121.394 161.083 119.661 161.631 117.99L157.991 114.58L162.491 107.783L167.339 109.388C168.692 108.191 170.208 107.171 171.848 106.355V101.54L180.124 99.7344L182.353 104.1C184.207 104.154 186.044 104.446 187.814 104.966L191.43 101.524L198.635 105.777L196.933 110.343L196.874 110.327ZM186.743 116.746C185.215 115.842 183.437 115.386 181.635 115.435C179.832 115.485 178.086 116.038 176.617 117.024C175.147 118.011 174.022 119.386 173.382 120.977C172.742 122.567 172.617 124.301 173.023 125.959C173.428 127.616 174.346 129.123 175.66 130.288C176.974 131.453 178.625 132.224 180.404 132.503C182.183 132.783 184.01 132.558 185.653 131.857C187.296 131.156 188.682 130.011 189.635 128.566C190.269 127.61 190.698 126.544 190.896 125.431C191.094 124.318 191.058 123.179 190.789 122.079C190.52 120.979 190.025 119.94 189.331 119.021C188.636 118.102 187.757 117.321 186.743 116.722V116.746Z" fill="#436850"/>
<g opacity="0.6">
<path fill-rule="evenodd" clip-rule="evenodd" d="M186.743 116.721C185.215 115.82 183.438 115.366 181.637 115.417C179.836 115.468 178.092 116.022 176.624 117.008C175.157 117.995 174.032 119.369 173.393 120.959C172.754 122.548 172.629 124.28 173.033 125.937C173.438 127.593 174.354 129.099 175.666 130.264C176.977 131.43 178.626 132.202 180.403 132.483C182.18 132.764 184.006 132.542 185.649 131.845C187.292 131.148 188.679 130.006 189.635 128.565C190.269 127.608 190.698 126.543 190.896 125.43C191.094 124.317 191.058 123.178 190.789 122.078C190.521 120.978 190.025 119.939 189.331 119.02C188.636 118.101 187.757 117.32 186.743 116.721Z" fill="white"/>
</g>
<path d="M153.899 203.827V198.684H154.903V203.787C154.903 205.922 155.966 206.893 157.812 206.893C159.658 206.893 160.738 205.922 160.738 203.787V198.684H161.716V203.827C161.716 206.411 160.253 207.743 157.812 207.743C155.371 207.743 153.899 206.403 153.899 203.827Z" fill="#263238"/>
<path d="M172.196 201.765C172.196 203.675 170.733 204.83 168.309 204.83H165.757V207.663H164.745V198.684H168.309C170.733 198.684 172.196 199.839 172.196 201.765ZM171.193 201.765C171.193 200.329 170.189 199.502 168.283 199.502H165.732V203.996H168.283C170.189 203.996 171.176 203.193 171.176 201.765H171.193Z" fill="#263238"/>
<path d="M174.374 198.684H178.245C181.29 198.684 183.348 200.529 183.348 203.177C183.348 205.825 181.29 207.663 178.245 207.663H174.374V198.684ZM178.194 206.845C180.745 206.845 182.353 205.328 182.353 203.177C182.353 201.027 180.72 199.502 178.194 199.502H175.378V206.845H178.194Z" fill="#263238"/>
<path d="M191.43 205.264H186.13L184.982 207.672H183.935L188.291 198.692H189.286L193.633 207.672H192.578L191.43 205.264ZM191.064 204.462L188.784 199.647L186.496 204.462H191.064Z" fill="#263238"/>
<path d="M196.585 199.503H193.233V198.7H200.948V199.503H197.605V207.664H196.602L196.585 199.503Z" fill="#263238"/>
<path d="M209.268 206.845V207.647H202.539V198.684H209.064V199.486H203.543V202.696H208.468V203.498H203.543V206.837L209.268 206.845Z" fill="#263238"/>
<path d="M252.268 29.6063C252.268 29.6865 248.823 29.7828 244.57 29.8149C240.316 29.847 236.914 29.8149 236.914 29.7267C236.914 29.6384 240.316 29.5421 244.57 29.51C248.823 29.4779 252.268 29.518 252.268 29.6063Z" fill="#263238"/>
<path d="M252.302 33.323C252.302 33.4113 248.857 33.5076 244.604 33.5396C240.35 33.5717 236.905 33.5396 236.905 33.4434C236.905 33.3471 240.35 33.2668 244.604 33.2347C248.857 33.2026 252.302 33.2427 252.302 33.323Z" fill="#263238"/>
<path d="M252.336 37.0388C252.336 37.1271 248.891 37.2234 244.638 37.2555C240.384 37.2876 236.931 37.2555 236.931 37.1592C236.931 37.0629 240.376 36.9826 244.638 36.9505C248.899 36.9184 252.336 36.9586 252.336 37.0388Z" fill="#263238"/>
<path d="M112.183 41.2822H112.498H113.349L116.641 41.21L116.547 41.2983C116.547 40.6082 116.547 39.8619 116.547 39.0514C116.547 38.6261 116.547 38.249 116.547 37.7514C116.6 37.502 116.735 37.2749 116.934 37.1032C117.133 36.9315 117.385 36.8241 117.653 36.7965C118.18 36.7965 118.648 36.7965 119.227 36.7965C119.526 36.844 119.799 36.9902 119.995 37.2091C120.191 37.428 120.299 37.7055 120.299 37.9922C120.299 39.0434 120.299 40.1428 120.341 41.2742L120.188 41.1378H124.339L124.177 41.2822C124.177 39.6773 124.177 38.0724 124.177 36.4114C124.177 35.9941 124.177 35.6089 124.177 35.1676C124.16 34.9828 124.099 34.804 123.999 34.6443C123.899 34.4847 123.762 34.3481 123.599 34.2447L121.787 32.5596L120.035 30.9547L119.184 30.1522C118.895 29.8874 118.665 29.6146 118.334 29.5504C118.171 29.5107 118.002 29.5052 117.837 29.5344C117.673 29.5635 117.517 29.6265 117.381 29.7189C117.126 29.9195 116.862 30.2084 116.607 30.4411L115.033 31.7411C114.097 32.6559 113.119 33.4984 112.413 34.2929C112.206 34.7533 112.133 35.2573 112.2 35.7533V37.1336C112.2 37.936 112.2 38.7385 112.2 39.3483C112.2 39.9582 112.2 40.3835 112.2 40.7687C112.2 41.1538 112.2 41.2742 112.2 41.2822C112.19 41.1272 112.19 40.9718 112.2 40.8168C112.2 40.4316 112.2 39.9742 112.2 39.4125C112.2 38.8508 112.2 38.0243 112.141 37.1737C112.141 36.7323 112.141 36.2669 112.141 35.7694C112.141 35.5206 112.141 35.2638 112.141 34.9669C112.139 34.6858 112.215 34.4091 112.362 34.1645C113.136 33.2738 114.063 32.4954 114.99 31.5485L116.471 30.1201C116.734 29.8714 116.955 29.6306 117.27 29.3738C117.439 29.2535 117.635 29.1707 117.843 29.1318C118.05 29.0929 118.265 29.0988 118.47 29.1492C118.864 29.2808 119.212 29.5143 119.473 29.8232L120.324 30.6257L122.076 32.2306L123.897 33.9157C124.066 34.0587 124.22 34.2173 124.356 34.3892C124.493 34.5852 124.569 34.8128 124.577 35.0472C124.577 35.4564 124.577 35.8496 124.577 36.291C124.577 37.9681 124.577 39.5971 124.577 41.1699V41.3224H124.39H120.239H120.094V41.1859C120.094 40.0465 120.094 38.9471 120.094 37.9039C120.099 37.6745 120.016 37.4513 119.859 37.2757C119.703 37.1 119.484 36.9839 119.244 36.949C118.767 36.949 118.197 36.949 117.738 36.949C117.523 36.9674 117.32 37.0507 117.159 37.1866C116.998 37.3224 116.888 37.5037 116.845 37.7033C116.845 38.0965 116.845 38.5619 116.845 38.9551V41.3384H116.751H113.408H112.558C112.431 41.3329 112.305 41.3141 112.183 41.2822Z" fill="#263238"/>
<path d="M214.133 38.1139C214.133 38.2263 201.17 38.3226 185.211 38.3226C169.253 38.3226 156.289 38.2263 156.289 38.1139C156.289 38.0016 169.253 37.9053 185.211 37.9053C201.17 37.9053 214.133 38.0016 214.133 38.1139Z" fill="#263238"/>
<path d="M212.628 291.727H151.849C148.121 291.727 144.546 290.331 141.909 287.845C139.272 285.359 137.79 281.987 137.788 278.471C137.788 274.953 139.269 271.579 141.906 269.091C144.543 266.604 148.12 265.206 151.849 265.206H212.628C216.357 265.206 219.933 266.604 222.57 269.091C225.207 271.579 226.689 274.953 226.689 278.471C226.687 281.987 225.204 285.359 222.567 287.845C219.931 290.331 216.355 291.727 212.628 291.727Z" fill="#436850"/>
<path d="M170.64 280.406L171.15 279.347C171.775 279.756 172.516 279.977 173.277 279.98C174.127 279.98 174.527 279.708 174.527 279.33C174.527 278.191 170.767 278.969 170.767 276.706C170.767 275.671 171.618 274.813 173.489 274.813C174.276 274.795 175.053 274.981 175.735 275.35L175.276 276.418C174.73 276.117 174.112 275.954 173.481 275.944C172.63 275.944 172.256 276.257 172.256 276.642C172.256 277.766 176.007 276.987 176.007 279.226C176.007 280.245 175.114 281.112 173.268 281.112C172.337 281.133 171.42 280.886 170.64 280.406Z" fill="white"/>
<path d="M180.133 280.782C179.782 280.99 179.373 281.093 178.959 281.079C178.718 281.107 178.474 281.085 178.244 281.013C178.014 280.94 177.803 280.821 177.628 280.663C177.453 280.504 177.318 280.311 177.231 280.097C177.145 279.884 177.111 279.654 177.13 279.426V277.5H176.365V276.449H177.13V275.31H178.568V276.449H179.81V277.5H178.568V279.402C178.556 279.483 178.564 279.565 178.59 279.643C178.617 279.721 178.662 279.792 178.721 279.852C178.781 279.911 178.854 279.957 178.935 279.986C179.016 280.015 179.102 280.027 179.189 280.02C179.396 280.025 179.599 279.965 179.767 279.851L180.133 280.782Z" fill="white"/>
<path d="M185.339 278.335V281.032H183.986V280.454C183.82 280.681 183.591 280.861 183.324 280.976C183.058 281.09 182.763 281.134 182.472 281.104C181.307 281.104 180.618 280.494 180.618 279.684C180.618 278.873 181.239 278.279 182.753 278.279H183.935C183.935 277.702 183.57 277.357 182.796 277.357C182.281 277.352 181.779 277.507 181.366 277.798L180.848 276.843C181.488 276.46 182.234 276.265 182.991 276.281C184.454 276.257 185.339 276.915 185.339 278.335ZM183.893 279.531V279.05H182.906C182.234 279.05 182.055 279.282 182.055 279.595C182.055 279.908 182.362 280.165 182.864 280.165C183.091 280.183 183.318 280.131 183.511 280.017C183.705 279.902 183.853 279.732 183.935 279.531H183.893Z" fill="white"/>
<path d="M189.711 276.257V277.508H189.397C189.213 277.492 189.028 277.516 188.855 277.576C188.682 277.637 188.526 277.734 188.398 277.86C188.271 277.986 188.175 278.137 188.118 278.303C188.061 278.468 188.044 278.644 188.07 278.816V281.031H186.632V276.353H188.01V276.971C188.21 276.729 188.47 276.538 188.766 276.413C189.063 276.289 189.387 276.235 189.711 276.257Z" fill="white"/>
<path d="M193.947 280.782C193.596 280.99 193.188 281.093 192.774 281.079C192.529 281.11 192.28 281.089 192.045 281.017C191.81 280.944 191.596 280.823 191.418 280.662C191.24 280.501 191.102 280.304 191.016 280.086C190.929 279.867 190.896 279.634 190.919 279.402V277.476H190.154V276.425H190.919V275.285H192.365V276.425H193.599V277.476H192.365V279.378C192.354 279.458 192.361 279.54 192.387 279.617C192.413 279.694 192.457 279.765 192.516 279.824C192.575 279.883 192.646 279.929 192.726 279.959C192.806 279.988 192.892 280.001 192.978 279.996C193.187 279.999 193.393 279.94 193.565 279.827L193.947 280.782Z" fill="white"/>
<path d="M240.002 228.815C240.002 228.927 213.87 229.024 181.639 229.024C149.408 229.024 123.267 228.927 123.267 228.815C123.267 228.703 149.399 228.606 181.639 228.606C213.878 228.606 240.002 228.695 240.002 228.815Z" fill="#263238"/>
<path d="M216.745 235.565C216.745 235.677 201.025 235.774 181.639 235.774C162.252 235.774 146.524 235.677 146.524 235.565C146.524 235.453 162.244 235.356 181.639 235.356C201.033 235.356 216.745 235.445 216.745 235.565Z" fill="#263238"/>
<path d="M55.2324 334.989L50.0605 353.02L66.8608 354.465L70.391 337.3L55.2324 334.989Z" fill="#436850"/>
<path d="M67.3457 352.996C66.5254 353.045 65.702 353.018 64.8873 352.915C63.3731 352.803 61.289 352.586 58.9923 352.305L53.1228 351.559C52.3034 351.501 51.4916 351.369 50.6985 351.166C51.519 351.118 52.3426 351.147 53.1569 351.254C54.671 351.367 56.7551 351.591 59.0518 351.864L64.9213 352.602C65.74 352.667 66.5512 352.798 67.3457 352.996Z" fill="#263238"/>
<g opacity="0.6">
<path d="M50.0604 353.02L66.8607 354.465L67.1329 353.14L50.5453 351.15L50.0774 352.836" fill="white"/>
</g>
<path d="M58.4054 352.218C58.8128 349.891 59.3466 347.585 60.0046 345.309C60.5351 343.004 61.1967 340.727 61.9866 338.488C61.5792 340.816 61.0454 343.122 60.3874 345.397C59.8522 347.702 59.1907 349.978 58.4054 352.218Z" fill="#263238"/>
<path d="M66.4185 352.874C66.6843 351.773 66.6843 350.629 66.4185 349.528C66.1248 348.342 65.4888 347.256 64.5811 346.39C63.4508 345.352 61.976 344.711 60.4044 344.577C58.8328 344.419 57.25 344.758 55.9045 345.54C54.8165 346.196 53.9189 347.098 53.293 348.164C52.7339 349.164 52.3735 350.251 52.2297 351.374C52.2297 351.374 52.2297 351.285 52.2297 351.133C52.2122 350.903 52.2122 350.673 52.2297 350.443C52.3423 349.602 52.6131 348.787 53.0293 348.035C53.6579 346.892 54.5935 345.923 55.7429 345.227C57.1501 344.387 58.8164 344.02 60.4725 344.184C61.9817 344.295 63.4107 344.87 64.5401 345.821C65.6695 346.772 66.4369 348.046 66.7247 349.448C66.906 350.282 66.906 351.142 66.7247 351.976C66.6739 352.199 66.6056 352.419 66.5206 352.634C66.4695 352.802 66.427 352.882 66.4185 352.874Z" fill="#263238"/>
<path d="M124.577 330.15L123.454 346.199C123.454 346.199 140.348 351.487 140.467 354.473L107.454 354.697L108.117 329.677L124.577 330.15Z" fill="#436850"/>
<g opacity="0.6">
<path d="M113.332 344.53C113.012 344.611 112.735 344.801 112.554 345.063C112.374 345.325 112.302 345.641 112.353 345.95C112.427 346.256 112.623 346.523 112.9 346.697C113.177 346.87 113.515 346.936 113.842 346.881C114.182 346.794 114.475 346.59 114.664 346.309C114.853 346.029 114.924 345.691 114.863 345.364C114.75 345.054 114.514 344.797 114.205 344.647C113.896 344.498 113.537 344.467 113.204 344.562" fill="white"/>
</g>
<g opacity="0.6">
<path d="M107.437 354.664L107.505 352.137L139.387 352.939C139.726 353.102 140.016 353.343 140.231 353.638C140.446 353.934 140.58 354.276 140.621 354.632L107.437 354.664Z" fill="white"/>
</g>
<path d="M123.999 346.031C123.999 346.183 123.148 346.231 122.366 346.697C121.583 347.162 121.115 347.788 120.97 347.724C120.826 347.659 121.09 346.793 122.085 346.239C123.08 345.685 124.033 345.886 123.999 346.031Z" fill="#263238"/>
<path d="M127.41 347.476C127.41 347.62 126.738 347.861 126.168 348.487C125.598 349.113 125.419 349.795 125.266 349.779C125.113 349.763 125.028 348.904 125.751 348.174C126.474 347.443 127.41 347.331 127.41 347.476Z" fill="#263238"/>
<path d="M129.256 351.439C129.103 351.439 128.907 350.701 129.349 349.882C129.792 349.064 130.549 348.751 130.617 348.879C130.685 349.008 130.2 349.441 129.851 350.115C129.502 350.789 129.417 351.431 129.256 351.439Z" fill="#263238"/>
<path d="M123.82 342.347C123.752 342.483 123.02 342.259 122.119 342.291C121.217 342.323 120.494 342.571 120.418 342.435C120.341 342.299 121.038 341.786 122.119 341.762C123.199 341.738 123.905 342.235 123.82 342.347Z" fill="#263238"/>
<path d="M123.982 339.113C123.436 339.235 122.866 339.216 122.331 339.057C121.743 338.941 121.172 338.758 120.63 338.511C120.309 338.359 119.996 338.19 119.694 338.005C119.514 337.903 119.351 337.776 119.21 337.628C119.108 337.519 119.048 337.38 119.039 337.235C119.03 337.09 119.072 336.946 119.159 336.826C119.241 336.719 119.35 336.633 119.476 336.576C119.602 336.518 119.742 336.491 119.882 336.497C120.09 336.501 120.296 336.533 120.494 336.593C120.845 336.684 121.187 336.805 121.515 336.954C122.062 337.208 122.565 337.541 123.003 337.941C123.752 338.631 123.99 339.209 123.939 339.233C123.888 339.257 123.505 338.8 122.74 338.222C122.295 337.899 121.809 337.629 121.294 337.42C120.992 337.293 120.679 337.194 120.358 337.123C120.009 337.026 119.711 337.01 119.618 337.123C119.524 337.235 119.618 337.203 119.618 337.299C119.726 337.408 119.849 337.502 119.984 337.58C120.256 337.761 120.54 337.924 120.834 338.07C121.339 338.326 121.869 338.535 122.417 338.696C122.948 338.798 123.472 338.937 123.982 339.113Z" fill="#263238"/>
<path d="M123.769 339.33C123.473 338.873 123.336 338.34 123.378 337.805C123.36 336.881 123.613 335.97 124.109 335.173C124.205 334.971 124.355 334.795 124.545 334.662C124.734 334.53 124.956 334.446 125.19 334.419C125.337 334.423 125.48 334.468 125.601 334.548C125.722 334.628 125.816 334.739 125.87 334.868C125.948 335.054 126 335.248 126.023 335.446C126.075 335.795 126.075 336.149 126.023 336.497C125.913 337.083 125.654 337.633 125.266 338.102C124.594 338.905 123.914 339.057 123.905 339.001C123.897 338.945 124.424 338.648 124.943 337.886C125.241 337.445 125.435 336.95 125.513 336.433C125.555 336.135 125.555 335.833 125.513 335.534C125.47 335.205 125.343 334.933 125.215 334.965C125.088 334.997 124.764 335.197 124.62 335.454C124.448 335.708 124.303 335.977 124.186 336.257C123.984 336.753 123.858 337.275 123.812 337.805C123.701 338.728 123.854 339.306 123.769 339.33Z" fill="#263238"/>
<path d="M124.577 191.021L74.2784 190.668L49.9754 341.272L70.8503 343.768L97.6032 219.933L105.608 344.209L105.633 344.578L128.209 344.209L124.577 191.021Z" fill="#263238"/>
<path d="M101.703 203.195C102.048 203.155 102.394 203.133 102.741 203.131L105.769 203.026L116.641 202.737H116.845V202.938C116.845 205.915 116.845 209.237 116.845 212.776V212.864L116.768 212.928L114.88 214.533L109.3 219.348L109.146 219.476L109.002 219.356L101.559 213.097L101.499 213.049V212.969C101.499 209.983 101.567 207.52 101.593 205.746C101.593 204.944 101.593 204.294 101.635 203.805C101.63 203.585 101.644 203.364 101.678 203.147C101.691 203.387 101.691 203.628 101.678 203.869C101.678 204.366 101.678 205.032 101.729 205.851C101.729 207.592 101.78 210.016 101.822 212.961L101.763 212.84L109.257 219.035H108.959L114.531 214.22L116.428 212.615L116.351 212.776C116.351 209.237 116.351 205.915 116.351 202.938L116.564 203.131L105.812 203.227H101.916C101.844 203.222 101.773 203.211 101.703 203.195Z" fill="#455A64"/>
<path d="M78.0298 202.577C78.3385 202.557 78.6483 202.557 78.957 202.577L81.6621 202.785L91.4445 203.588H91.6487V203.78C91.2829 206.693 90.8576 210.007 90.4152 213.546V213.634L90.3472 213.691L88.178 215.295L82.8275 219.308L82.6488 219.436L82.5127 219.276L76.6688 212.294L76.6177 212.238V212.166C77.0431 209.213 77.3918 206.781 77.6385 205.024C77.7661 204.222 77.8597 203.588 77.9362 203.09C77.9534 202.872 77.9962 202.657 78.0638 202.448C78.0586 202.69 78.0387 202.931 78.0043 203.17C77.9533 203.673 77.8852 204.331 77.8001 205.144L76.9495 212.214V212.086C78.6508 214.1 80.6753 216.451 82.8615 219.011H82.5467L87.8888 214.999L90.058 213.394L89.9729 213.53C90.4408 209.999 90.8831 206.685 91.2659 203.772L91.4445 203.981L81.8067 202.97L79.0676 202.657C78.7202 202.651 78.3736 202.624 78.0298 202.577Z" fill="#455A64"/>
<path d="M108.806 225.429C108.015 225.146 107.252 224.796 106.526 224.386C105.14 223.704 103.226 222.781 101.091 221.762C98.9557 220.743 97.0162 219.884 95.6041 219.251C94.8196 218.945 94.0629 218.58 93.3414 218.159C94.1649 218.35 94.9658 218.618 95.7317 218.962C97.1863 219.523 99.1343 220.358 101.303 221.369C103.473 222.38 105.336 223.367 106.68 224.121C107.43 224.493 108.142 224.931 108.806 225.429Z" fill="#455A64"/>
<path d="M108.16 229.089C107.558 228.984 106.982 228.778 106.458 228.479C103.801 227.194 101.625 225.172 100.223 222.685C99.8974 222.193 99.6696 221.649 99.5512 221.08C100.564 222.763 101.786 224.325 103.192 225.734C104.705 227.03 106.372 228.155 108.16 229.089Z" fill="#455A64"/>
<path d="M122.357 272.606C122.326 272.883 122.248 273.154 122.127 273.409C121.854 274.107 121.503 274.777 121.081 275.407C119.688 277.516 117.636 279.167 115.208 280.133C112.781 281.098 110.095 281.331 107.522 280.799C106.75 280.645 105.998 280.417 105.276 280.117C105.004 280.023 104.749 279.89 104.519 279.724C105.525 280.04 106.547 280.307 107.581 280.526C110.089 280.964 112.678 280.699 115.029 279.765C117.379 278.831 119.388 277.269 120.809 275.27C121.906 273.697 122.272 272.574 122.357 272.606Z" fill="#455A64"/>
<path d="M119.048 271.323C118.462 271.695 117.811 271.966 117.126 272.125C115.505 272.607 113.822 272.877 112.124 272.928C110.434 272.987 108.742 272.893 107.071 272.647C106.371 272.581 105.682 272.433 105.021 272.205C105.021 272.053 108.202 272.631 112.107 272.494C113.771 272.446 115.425 272.231 117.04 271.852C118.274 271.539 119.023 271.259 119.048 271.323Z" fill="#455A64"/>
<path d="M81.6536 272.206C81.1486 272.78 80.5584 273.283 79.9013 273.699C78.3679 274.773 76.6811 275.638 74.8909 276.266C73.0998 276.895 71.2244 277.283 69.3192 277.422C68.5323 277.512 67.7356 277.493 66.9544 277.366C66.9544 277.294 67.8561 277.286 69.2852 277.117C73.0168 276.678 76.588 275.422 79.7141 273.45C80.3371 273.003 80.9845 272.588 81.6536 272.206Z" fill="#455A64"/>
<path d="M77.2387 272.036C75.7457 272.46 74.1749 272.583 72.6282 272.397C71.0683 272.344 69.5367 271.989 68.1283 271.354C68.1283 271.226 70.1528 271.779 72.6622 271.964C75.1717 272.149 77.2217 271.908 77.2387 272.036Z" fill="#455A64"/>
<path d="M97.3054 220.977C96.5946 221.382 95.835 221.705 95.0427 221.939C93.1611 222.586 91.2185 223.061 89.2413 223.36C87.2733 223.66 85.2793 223.781 83.2868 223.721C82.4569 223.731 81.6288 223.647 80.8199 223.472C81.6399 223.401 82.4641 223.383 83.2868 223.416C87.2529 223.366 91.1901 222.771 94.9747 221.651C95.7352 221.378 96.5138 221.153 97.3054 220.977Z" fill="#455A64"/>
<path d="M95.9274 216.113C96.055 216.113 96.1656 216.482 96.1741 216.916C96.1826 217.349 96.0806 217.718 95.953 217.718C95.8254 217.718 95.7233 217.349 95.7148 216.916C95.7063 216.482 95.7998 216.113 95.9274 216.113Z" fill="#455A64"/>
<path d="M95.936 212.775C96.0636 212.775 96.1657 213.153 96.1572 213.578C96.1487 214.003 96.0551 214.38 95.9275 214.38C95.7999 214.38 95.6978 214.003 95.6978 213.578C95.6978 213.153 95.8084 212.775 95.936 212.775Z" fill="#455A64"/>
<path d="M96.004 209.445C96.1316 209.445 96.2252 209.823 96.2167 210.248C96.2082 210.673 96.0891 211.05 95.9615 211.05C95.8339 211.05 95.7403 210.673 95.7573 210.248C95.7743 209.823 95.8849 209.437 96.004 209.445Z" fill="#455A64"/>
<path d="M96.1486 206.108C96.2762 206.108 96.3612 206.493 96.3357 206.95C96.3102 207.407 96.1996 207.753 96.072 207.753C95.9444 207.753 95.8594 207.367 95.8764 206.95C95.8934 206.533 96.021 206.1 96.1486 206.108Z" fill="#455A64"/>
<path d="M96.3612 202.777C96.4888 202.777 96.5654 203.162 96.5313 203.627C96.4973 204.093 96.3697 204.43 96.2421 204.43C96.1145 204.43 96.038 204.036 96.072 203.579C96.106 203.122 96.2336 202.768 96.3612 202.777Z" fill="#455A64"/>
<path d="M96.6334 199.455C96.761 199.455 96.8291 199.84 96.795 200.297C96.761 200.755 96.6164 201.1 96.4888 201.1C96.3612 201.1 96.2932 200.706 96.3357 200.249C96.3782 199.792 96.5143 199.439 96.6334 199.455Z" fill="#455A64"/>
<path d="M96.9142 196.726C97.0418 196.726 97.1183 196.991 97.0843 197.279C97.0503 197.568 96.9312 197.801 96.8036 197.793C96.676 197.785 96.5995 197.528 96.6335 197.239C96.6675 196.95 96.7866 196.718 96.9142 196.726Z" fill="#455A64"/>
<path d="M68.477 340.462C68.6046 340.462 68.6301 340.871 68.528 341.329C68.4259 341.786 68.2558 342.131 68.1282 342.131C68.0006 342.131 67.9836 341.722 68.0772 341.272C68.1707 340.823 68.3579 340.414 68.477 340.462Z" fill="#455A64"/>
<path d="M69.1746 337.203C69.2937 337.203 69.3192 337.612 69.2256 338.062C69.132 338.511 68.9534 338.864 68.8258 338.864C68.6982 338.864 68.6812 338.455 68.7748 337.998C68.8683 337.54 69.047 337.203 69.1746 337.203Z" fill="#455A64"/>
<path d="M69.8637 333.921C69.9912 333.921 70.0168 334.33 69.9147 334.78C69.8126 335.229 69.6425 335.582 69.5234 335.582C69.4043 335.582 69.3703 335.173 69.4638 334.723C69.5574 334.274 69.7446 333.897 69.8637 333.921Z" fill="#455A64"/>
<path d="M70.5611 330.648C70.6887 330.648 70.7057 331.057 70.6122 331.515C70.5186 331.972 70.3399 332.317 70.2123 332.317C70.0848 332.317 70.0677 331.908 70.1613 331.458C70.2549 331.009 70.4335 330.632 70.5611 330.648Z" fill="#455A64"/>
<path d="M71.2501 327.382C71.3777 327.382 71.4033 327.791 71.3097 328.241C71.2161 328.69 71.029 329.043 70.9099 329.043C70.7908 329.043 70.7568 328.634 70.8588 328.176C70.9609 327.719 71.131 327.358 71.2501 327.382Z" fill="#455A64"/>
<path d="M71.9476 324.108C72.0752 324.108 72.0922 324.517 71.9986 324.966C71.9051 325.416 71.7264 325.769 71.5988 325.769C71.4712 325.769 71.4542 325.359 71.5478 324.91C71.6414 324.461 71.82 324.083 71.9476 324.108Z" fill="#455A64"/>
<path d="M72.6452 320.842C72.7643 320.842 72.7898 321.243 72.6962 321.701C72.6027 322.158 72.4155 322.503 72.2964 322.503C72.1773 322.503 72.1433 322.094 72.2454 321.644C72.3475 321.195 72.5006 320.818 72.6452 320.842Z" fill="#455A64"/>
<path d="M73.3512 317.568C73.4788 317.568 73.4958 317.977 73.4022 318.426C73.3087 318.876 73.13 319.229 73.0024 319.229C72.8748 319.229 72.8578 318.819 72.9514 318.362C73.045 317.905 73.2066 317.543 73.3512 317.568Z" fill="#455A64"/>
<path d="M74.0318 314.292C74.1509 314.292 74.1764 314.701 74.0828 315.151C73.9892 315.6 73.8106 315.953 73.683 315.953C73.5554 315.953 73.5299 315.544 73.632 315.095C73.734 314.645 73.9042 314.268 74.0318 314.292Z" fill="#455A64"/>
<path d="M74.7208 311.027C74.8484 311.027 74.8739 311.429 74.7718 311.886C74.6697 312.343 74.4996 312.689 74.372 312.689C74.2444 312.689 74.2274 312.279 74.3209 311.83C74.4145 311.381 74.6017 311.003 74.7208 311.027Z" fill="#455A64"/>
<path d="M75.4184 307.753C75.5374 307.753 75.563 308.162 75.4694 308.612C75.3758 309.061 75.1972 309.414 75.0696 309.414C74.942 309.414 74.925 309.005 75.0186 308.548C75.1121 308.09 75.2908 307.729 75.4184 307.753Z" fill="#455A64"/>
<path d="M76.1073 304.48C76.2349 304.48 76.2604 304.889 76.1583 305.338C76.0562 305.788 75.8861 306.141 75.767 306.141C75.6479 306.141 75.6139 305.731 75.7075 305.282C75.801 304.833 75.9882 304.456 76.1073 304.48Z" fill="#455A64"/>
<path d="M76.8049 301.213C76.924 301.213 76.9495 301.622 76.8559 302.072C76.7623 302.521 76.5837 302.874 76.4561 302.874C76.3285 302.874 76.3115 302.465 76.4051 302.015C76.4986 301.566 76.6773 301.189 76.8049 301.213Z" fill="#455A64"/>
<path d="M77.4939 297.94C77.6215 297.94 77.6471 298.349 77.5535 298.798C77.4599 299.248 77.2728 299.601 77.1537 299.601C77.0346 299.601 77.0006 299.192 77.0941 298.742C77.1877 298.293 77.3748 297.884 77.4939 297.94Z" fill="#455A64"/>
<path d="M78.1914 294.674C78.319 294.674 78.336 295.083 78.2424 295.54C78.1488 295.998 77.9702 296.343 77.8426 296.343C77.715 296.343 77.698 295.934 77.7916 295.484C77.8851 295.035 78.0638 294.674 78.1914 294.674Z" fill="#455A64"/>
<path d="M78.8804 291.399C79.008 291.399 79.0335 291.808 78.94 292.257C78.8464 292.707 78.6593 293.06 78.5402 293.06C78.4211 293.06 78.387 292.658 78.4891 292.201C78.5912 291.744 78.7613 291.375 78.8804 291.399Z" fill="#455A64"/>
<path d="M79.578 288.125C79.7056 288.125 79.7226 288.534 79.6291 288.984C79.5355 289.433 79.3569 289.786 79.2293 289.786C79.1017 289.786 79.0846 289.377 79.1782 288.928C79.2718 288.478 79.4504 288.101 79.578 288.125Z" fill="#455A64"/>
<path d="M80.2754 284.852C80.3945 284.852 80.42 285.261 80.3265 285.718C80.2329 286.176 80.0458 286.521 79.9267 286.521C79.8076 286.521 79.7736 286.111 79.8756 285.662C79.9777 285.213 80.1563 284.828 80.2754 284.852Z" fill="#455A64"/>
<path d="M81.0071 281.585C81.1347 281.585 81.1602 281.994 81.0581 282.444C80.956 282.893 80.7859 283.246 80.6583 283.246C80.5307 283.246 80.5137 282.837 80.6073 282.38C80.7008 281.922 80.8369 281.561 81.0071 281.585Z" fill="#455A64"/>
<path d="M81.6621 278.313C81.7812 278.313 81.8067 278.722 81.7131 279.171C81.6195 279.621 81.4409 279.974 81.3133 279.974C81.1857 279.974 81.1602 279.564 81.2623 279.115C81.3643 278.666 81.5345 278.289 81.6621 278.313Z" fill="#455A64"/>
<path d="M82.3511 275.037C82.4787 275.037 82.5042 275.446 82.4021 275.904C82.3 276.361 82.1299 276.706 82.0023 276.706C81.8747 276.706 81.8577 276.297 81.9513 275.848C82.0448 275.398 82.232 275.013 82.3511 275.037Z" fill="#455A64"/>
<path d="M83.0486 271.771C83.1677 271.771 83.1933 272.18 83.0997 272.629C83.0061 273.079 82.8275 273.432 82.6999 273.432C82.5723 273.432 82.5553 273.023 82.6488 272.565C82.7424 272.108 82.921 271.747 83.0486 271.771Z" fill="#455A64"/>
<path d="M83.7376 268.497C83.8652 268.497 83.8907 268.906 83.7886 269.356C83.6865 269.805 83.5164 270.158 83.3973 270.158C83.2782 270.158 83.2442 269.749 83.3378 269.3C83.4314 268.85 83.6185 268.473 83.7376 268.497Z" fill="#455A64"/>
<path d="M84.4097 265.224C84.5373 265.224 84.5543 265.633 84.4607 266.09C84.3672 266.548 84.1885 266.893 84.0609 266.893C83.9333 266.893 83.9163 266.484 84.0099 266.034C84.1035 265.585 84.3076 265.2 84.4097 265.224Z" fill="#455A64"/>
<path d="M85.1242 261.958C85.2518 261.958 85.2773 262.367 85.1838 262.817C85.0902 263.266 84.903 263.619 84.784 263.619C84.6649 263.619 84.6308 263.21 84.7244 262.753C84.818 262.295 85.0051 261.934 85.1242 261.958Z" fill="#455A64"/>
<path d="M85.8218 258.684C85.9494 258.684 85.9664 259.093 85.8728 259.542C85.7793 259.992 85.6006 260.345 85.473 260.345C85.3454 260.345 85.3284 259.936 85.422 259.486C85.5156 259.037 85.6942 258.66 85.8218 258.684Z" fill="#455A64"/>
<path d="M86.5192 255.41C86.6383 255.41 86.6638 255.819 86.5702 256.276C86.4767 256.734 86.2895 257.079 86.1704 257.079C86.0514 257.079 86.0173 256.67 86.1194 256.22C86.2215 255.771 86.3916 255.394 86.5192 255.41Z" fill="#455A64"/>
<path d="M87.2083 252.143C87.3359 252.143 87.3529 252.552 87.2593 253.001C87.1657 253.451 86.9871 253.804 86.8595 253.804C86.7319 253.804 86.7149 253.394 86.8085 252.937C86.902 252.48 87.0807 252.143 87.2083 252.143Z" fill="#455A64"/>
<path d="M87.9059 248.869C88.025 248.869 88.0505 249.278 87.9569 249.728C87.8633 250.177 87.6762 250.53 87.5571 250.53C87.438 250.53 87.404 250.121 87.5061 249.672C87.6081 249.222 87.8123 248.845 87.9059 248.869Z" fill="#455A64"/>
<path d="M88.5948 245.604C88.7224 245.604 88.7479 246.005 88.6458 246.462C88.5438 246.92 88.3736 247.265 88.246 247.265C88.1184 247.265 88.1014 246.855 88.195 246.406C88.2886 245.957 88.4757 245.58 88.5948 245.604Z" fill="#455A64"/>
<path d="M89.2924 242.328C89.4115 242.328 89.437 242.738 89.3434 243.187C89.2499 243.636 89.0712 243.989 88.9436 243.989C88.816 243.989 88.799 243.58 88.8926 243.123C88.9862 242.665 89.1648 242.304 89.2924 242.328Z" fill="#455A64"/>
<path d="M89.9815 239.056C90.1091 239.056 90.1346 239.465 90.0325 239.914C89.9304 240.364 89.7603 240.717 89.6327 240.717C89.5051 240.717 89.4881 240.308 89.5817 239.858C89.6752 239.409 89.8624 239.032 89.9815 239.056Z" fill="#455A64"/>
<path d="M90.6789 235.79C90.798 235.79 90.8235 236.199 90.7299 236.649C90.6364 237.098 90.4578 237.451 90.3302 237.451C90.2026 237.451 90.1855 237.042 90.2791 236.593C90.3727 236.143 90.5513 235.766 90.6789 235.79Z" fill="#455A64"/>
<path d="M91.3679 232.516C91.4955 232.516 91.5211 232.925 91.4275 233.374C91.3339 233.824 91.1468 234.177 91.0277 234.177C90.9086 234.177 90.8746 233.768 90.9682 233.318C91.0617 232.869 91.2148 232.492 91.3679 232.516Z" fill="#455A64"/>
<path d="M92.0655 229.241C92.193 229.241 92.2101 229.651 92.1165 230.1C92.0229 230.549 91.8443 230.902 91.7167 230.902C91.5891 230.902 91.5721 230.493 91.6656 230.044C91.7592 229.594 91.9379 229.217 92.0655 229.241Z" fill="#455A64"/>
<path d="M92.7545 225.976C92.8821 225.976 92.9076 226.385 92.814 226.834C92.7204 227.284 92.5333 227.637 92.4142 227.637C92.2951 227.637 92.2611 227.236 92.3632 226.778C92.4653 226.321 92.6354 225.952 92.7545 225.976Z" fill="#455A64"/>
<path d="M93.4521 222.7C93.5797 222.7 93.5967 223.11 93.5031 223.559C93.4095 224.008 93.2309 224.361 93.1033 224.361C92.9757 224.361 92.9587 223.952 93.0523 223.503C93.1458 223.053 93.3245 222.676 93.4521 222.7Z" fill="#455A64"/>
<path d="M162.788 121.817C162.788 121.817 168.675 113.495 168.836 113.423C168.836 113.423 174.144 104.981 175.914 104.981C177.683 104.981 177.045 106.691 175.216 109.716C174.34 111.032 173.742 112.495 173.455 114.025L177.819 116.505C177.819 116.505 180.737 115.445 180.856 118.005C180.814 119.179 180.645 120.346 180.354 121.488C180.175 122.403 179.742 123.374 178.823 123.029C178.595 122.957 178.397 122.819 178.258 122.634C178.119 122.45 178.046 122.228 178.049 122.001C177.989 120.485 178.287 119.923 178.049 119.923C177.811 119.923 174.91 127.875 174.91 127.875L162.788 121.817Z" fill="#FFBE9D"/>
<path d="M174.672 115.286C175.111 114.976 175.581 114.707 176.075 114.483C176.571 114.264 177.123 114.183 177.666 114.251C177.871 114.268 178.068 114.331 178.241 114.435C178.414 114.539 178.559 114.68 178.662 114.848C178.765 115.015 178.825 115.204 178.835 115.397C178.845 115.591 178.806 115.784 178.721 115.96C178.546 116.371 178.302 116.754 177.998 117.091" fill="#FFBE9D"/>
<path d="M172.681 113.608C173.098 113.322 173.543 113.072 174.008 112.862C174.478 112.656 175 112.581 175.514 112.645C175.843 112.679 176.147 112.828 176.365 113.063C176.493 113.233 176.575 113.43 176.603 113.637C176.632 113.845 176.605 114.055 176.526 114.25C176.13 114.841 175.674 115.395 175.165 115.903" fill="#FFBE9D"/>
<path d="M164.847 117.123L156.34 134.279L165.697 143.323L170.58 130.532C170.58 130.532 173.2 131.022 174.272 129.385C175.463 127.555 177.028 122.275 177.028 122.275L164.847 117.123Z" fill="#FFBE9D"/>
<path d="M170.921 116.65C170.989 115.77 171.339 114.931 171.924 114.243C172.312 113.74 172.811 113.324 173.387 113.023C173.821 112.806 174.119 112.726 174.144 112.774C174.17 112.822 173.124 113.416 172.299 114.499C171.473 115.583 171.065 116.706 170.921 116.65Z" fill="#EB996E"/>
<path d="M180.354 116.721C180.354 116.777 180.022 116.625 179.504 116.544C178.87 116.435 178.217 116.531 177.649 116.817C177.096 117.156 176.629 117.606 176.28 118.133C175.982 118.534 175.778 118.783 175.718 118.751C175.659 118.719 175.761 118.43 176.007 117.949C176.319 117.321 176.819 116.794 177.445 116.432C177.773 116.265 178.134 116.162 178.505 116.131C178.877 116.099 179.251 116.139 179.606 116.247C180.15 116.424 180.388 116.681 180.354 116.721Z" fill="#EB996E"/>
<path d="M177.19 114.299C176.488 114.607 175.818 114.978 175.191 115.406C174.238 116.209 173.77 117.132 173.643 117.076C173.764 116.284 174.21 115.57 174.885 115.085C175.327 114.698 175.865 114.423 176.45 114.283C176.901 114.219 177.181 114.251 177.19 114.299Z" fill="#EB996E"/>
<path d="M179.282 118.006C179.401 117.966 179.623 118.632 179.172 119.29C178.721 119.948 177.998 120.092 177.989 119.94C177.981 119.787 178.449 119.586 178.789 119.065C179.129 118.543 179.146 118.022 179.282 118.006Z" fill="#EB996E"/>
<path d="M162.814 121.488C162.814 121.488 162.516 116.369 163.826 115.205C165.136 114.042 168.93 115.253 168.93 115.253" fill="#FFBE9D"/>
<path d="M169.474 112.813C168.956 113.857 168.302 114.836 167.526 115.726C166.874 116.701 166.097 117.595 165.213 118.391C166.374 116.369 167.803 114.495 169.466 112.813H169.474Z" fill="#EB996E"/>
<path d="M94.1325 73.9995L94.0049 113.954L112.175 114.756L112.702 105.038C112.702 105.038 119.159 106.25 120.817 100.593C121.889 96.9818 121.617 69.0645 121.617 69.0645L94.1325 73.9995Z" fill="#FFBE9D"/>
<path d="M124.007 71.8814C121.149 72.6838 120.528 77.0732 120.528 77.0732L116.037 86.4218C113.749 84.7367 110.678 84.8169 110.082 88.6286C109.657 91.3649 113.272 91.9186 113.272 91.9186C111.171 95.2969 109.742 98.0253 106.68 101.235C103.371 104.71 101.516 105.055 97.918 105.111H93.9625C93.9625 105.111 92.023 99.1728 88.4333 84.3274C84.4437 67.8531 105.097 69.9715 108.925 65.7667C115.178 58.9218 133.033 69.45 124.007 71.8814Z" fill="#263238"/>
<path d="M88.8245 85.8754C85.473 83.7569 85.1753 77.8509 87.1233 74.2639C88.1246 72.4882 89.6054 70.9935 91.4158 69.931C93.2262 68.8686 95.302 68.2761 97.4331 68.2134C98.0068 68.2494 98.5827 68.1896 99.1344 68.0369C99.8783 67.6656 100.502 67.111 100.938 66.432C103.932 62.7648 106.892 59.1618 112.447 59.1618C113.673 59.1039 114.89 59.3826 115.952 59.9642C116.941 60.6001 117.682 61.5248 118.061 62.5963C119.082 62.0754 120.181 61.7021 121.319 61.4889C121.89 61.3831 122.478 61.3951 123.043 61.5239C123.609 61.6527 124.138 61.8953 124.594 62.2352C125.036 62.5927 125.329 63.0859 125.423 63.6278C125.516 64.1696 125.403 64.7252 125.105 65.1962C126.048 65.1836 126.966 65.4897 127.691 66.0592C128.416 66.6287 128.902 67.4241 129.06 68.3017C129.358 70.0591 126.695 71.2949 126.415 71.4313C126.415 71.4313 127.878 74.3201 124.39 76.0534C122.987 76.7435 121.158 75.909 120.988 75.8046" fill="#263238"/>
<path d="M102.095 89.7197C102.34 90.7221 102.305 91.7674 101.993 92.753C101.822 93.7691 101.38 94.7274 100.708 95.5375C100.58 95.4813 101.167 94.2536 101.559 92.6567C101.95 91.0598 101.959 89.7197 102.095 89.7197Z" fill="#455A64"/>
<path d="M104.289 87.7607C104.448 88.735 104.39 89.7298 104.119 90.6817C103.997 91.6596 103.673 92.6055 103.166 93.4662C103.236 92.4983 103.404 91.539 103.668 90.6014C103.785 89.6389 103.993 88.6882 104.289 87.7607Z" fill="#455A64"/>
<path d="M110.584 81.165C110.584 81.2212 110.116 81.5743 109.461 82.2965C108.618 83.2523 107.956 84.3382 107.505 85.5063C107.052 86.676 106.688 87.8747 106.416 89.0933C106.338 89.6155 106.186 90.1256 105.965 90.6099C105.924 90.0719 105.967 89.5312 106.093 89.005C106.276 87.7448 106.604 86.5071 107.071 85.3137C107.548 84.1161 108.28 83.0237 109.223 82.1039C109.586 81.6882 110.054 81.3653 110.584 81.165Z" fill="#455A64"/>
<path d="M113.128 76.6709C113.336 77 113.459 77.3714 113.485 77.7542C113.749 79.5938 113.253 81.4588 112.098 82.9621C111.656 83.5238 111.248 83.7646 111.248 83.7646C111.939 82.707 112.488 81.5721 112.881 80.3863C113.128 79.1625 113.211 77.9142 113.128 76.6709Z" fill="#455A64"/>
<path d="M91.4445 86.6543C91.3764 86.7586 90.8235 86.574 90.194 86.245C89.5645 85.916 89.1137 85.5709 89.1818 85.4425C89.2498 85.3141 89.7942 85.5148 90.4237 85.8438C91.0532 86.1728 91.504 86.5499 91.4445 86.6543Z" fill="#455A64"/>
<path d="M100.223 82.3853C100.297 83.0073 100.111 83.6319 99.7043 84.1267C99.1429 85.0094 98.3858 85.4587 98.3093 85.3705C98.2327 85.2822 98.7941 84.7125 99.3045 83.902C99.8149 83.0915 100.087 82.3613 100.223 82.3853Z" fill="#455A64"/>
<path d="M102.92 81.0205C102.9 81.7783 102.616 82.5089 102.112 83.0989C101.38 84.142 100.47 84.7038 100.41 84.6075C100.819 84.0005 101.265 83.4164 101.746 82.8581C102.096 82.2232 102.488 81.6095 102.92 81.0205Z" fill="#455A64"/>
<path d="M116.343 64.2903C116.343 64.2903 115.994 64.0416 115.339 63.6885C114.399 63.2215 113.356 62.9687 112.294 62.9502C110.721 62.9122 109.169 63.3052 107.828 64.0817C106.21 65.0824 104.899 66.4658 104.026 68.0939C103.365 69.2857 102.846 70.5425 102.477 71.8414L102.409 72.0902L102.163 71.9698C100.912 71.3502 99.5257 71.0149 98.1135 70.9908C96.9925 70.9653 95.8754 71.1255 94.813 71.4642C93.8685 71.7944 92.9645 72.2194 92.1165 72.7321C92.2911 72.5372 92.4945 72.3669 92.7204 72.2266C93.3359 71.8069 94.0082 71.4668 94.7194 71.2155C95.8063 70.8272 96.9598 70.6313 98.122 70.6377C99.6007 70.6354 101.059 70.9655 102.375 71.6007L102.052 71.7371C102.416 70.4009 102.941 69.1085 103.617 67.8853C104.537 66.1969 105.917 64.7703 107.615 63.7527C109.03 62.9546 110.665 62.5719 112.311 62.6533C113.416 62.7024 114.49 63.0143 115.433 63.5601C115.683 63.7122 115.916 63.8869 116.13 64.0817C116.283 64.2021 116.351 64.2743 116.343 64.2903Z" fill="#455A64"/>
<path d="M125.896 66.4638C125.896 66.4638 126.398 66.3354 126.942 66.9051C127.248 67.2556 127.397 67.7045 127.359 68.1569C127.311 68.4544 127.191 68.7374 127.008 68.9838C126.825 69.2302 126.584 69.4333 126.304 69.5773C125.634 69.9382 124.842 70.0416 124.092 69.8662C123.265 69.6678 122.49 69.3129 121.813 68.823C121.101 68.3022 120.357 67.8225 119.584 67.3866C118.746 66.9582 117.842 66.6576 116.904 66.4959C115.075 66.1894 113.194 66.3106 111.426 66.8489C109.98 67.2984 108.614 67.9533 107.377 68.7909C106.248 69.5967 105.167 70.4592 104.136 71.3748C104.338 71.0637 104.581 70.778 104.859 70.5242C105.57 69.8001 106.347 69.1368 107.181 68.5421C108.423 67.6464 109.811 66.9471 111.29 66.4718C113.123 65.8843 115.084 65.7463 116.989 66.0706C117.975 66.2412 118.925 66.5581 119.805 67.0094C120.59 67.4598 121.343 67.9584 122.059 68.502C122.689 68.9654 123.409 69.3088 124.177 69.5131C124.835 69.6874 125.539 69.6155 126.142 69.3125C126.388 69.1966 126.602 69.0294 126.769 68.8235C126.935 68.6177 127.05 68.3788 127.104 68.1248C127.157 67.7297 127.048 67.3302 126.797 67.0094C126.573 66.7342 126.254 66.5412 125.896 66.4638Z" fill="#455A64"/>
<path d="M74.7889 118.134L58.5585 143.812C56.7381 146.813 55.0624 150.007 53.4546 153.321C52.8428 154.984 52.678 156.765 52.9749 158.503C53.2718 160.241 54.0212 161.882 55.1559 163.28L54.6966 162.654C55.586 163.691 56.7098 164.527 57.9858 165.102C59.2617 165.677 60.6577 165.975 62.0717 165.976H62.497C64.3424 165.975 66.1473 165.466 67.6901 164.51C69.233 163.555 70.4466 162.196 71.1821 160.6L76.3966 153.137L74.7889 118.134Z" fill="#436850"/>
<path d="M123.761 113.223C119.405 111.12 115.101 110.647 110.405 110.518C104.944 110.366 97.2375 109.644 91.3425 110.238C91.3425 110.238 74.5677 111.409 73.4023 122.274L75.6906 173.23L71.8456 194.816L125.632 196.349L125.241 170.863C125.904 157.614 124.492 138.845 124.492 138.845C125.343 131.719 129.451 128.517 130.038 123.879C130.557 119.787 127.648 115.092 123.761 113.223Z" fill="#436850"/>
<path d="M108.602 173.944C108.371 174.21 108.105 174.448 107.811 174.651C107.044 175.251 106.225 175.787 105.361 176.255C102.496 177.808 99.261 178.651 95.9574 178.706C92.6537 178.761 89.3892 178.025 86.4682 176.568C85.5884 176.136 84.749 175.634 83.9588 175.068C83.6472 174.874 83.3616 174.645 83.1082 174.386C83.1592 174.314 84.3501 175.268 86.5788 176.296C89.4784 177.647 92.6788 178.324 95.9125 178.269C99.1461 178.215 102.319 177.431 105.165 175.983C107.377 174.867 108.543 173.88 108.602 173.944Z" fill="#263238"/>
<path d="M73.3513 122.836C73.3902 122.999 73.4102 123.166 73.4108 123.333C73.4108 123.711 73.4704 124.176 73.5044 124.762C73.5639 126.054 73.6575 127.827 73.7596 129.994C73.9637 134.471 74.2274 140.562 74.5252 147.287C74.8229 154.011 75.1461 160.126 75.3758 164.571C75.4949 166.738 75.5885 168.512 75.6565 169.803C75.6565 170.389 75.7076 170.855 75.7246 171.232C75.7447 171.397 75.7447 171.564 75.7246 171.729C75.6771 171.57 75.6486 171.405 75.6395 171.24C75.597 170.863 75.5459 170.397 75.4864 169.82C75.3588 168.584 75.2227 166.794 75.0611 164.588C74.7378 160.166 74.3976 154.059 74.0913 147.303C73.7851 140.546 73.5809 134.463 73.4618 130.01C73.4618 127.835 73.3768 126.062 73.3513 124.762C73.3513 124.184 73.3513 123.711 73.3513 123.341C73.3313 123.173 73.3313 123.004 73.3513 122.836Z" fill="#263238"/>
<path d="M69.9486 125.541C69.9076 125.68 69.8445 125.813 69.7615 125.934L69.1575 127.034C68.6131 127.98 67.805 129.337 66.7672 130.99C64.7257 134.32 61.6633 138.781 58.5585 143.829C57.0018 146.365 55.6918 148.868 54.5519 151.155C53.4765 153.14 52.9388 155.346 52.9867 157.575C53.0684 159.077 53.495 160.545 54.2372 161.876C54.7646 162.815 55.2069 163.248 55.1644 163.28C55.0457 163.19 54.9373 163.087 54.8411 162.975C54.5574 162.656 54.3014 162.315 54.0756 161.956C53.2535 160.624 52.7702 159.129 52.6635 157.591C52.5613 155.303 53.0764 153.028 54.1606 150.979C55.292 148.66 56.5935 146.164 58.1587 143.596C61.272 138.509 64.3769 134.087 66.4865 130.757C67.5243 129.152 68.3749 127.852 68.9959 126.873C69.2766 126.456 69.4978 126.071 69.6849 125.822C69.8721 125.573 69.9486 125.533 69.9486 125.541Z" fill="#263238"/>
<path d="M168.879 139.528L156.434 131.849L148.574 144.688C148.574 144.688 137.686 130.412 132.743 122.051C128.184 114.347 122.297 112.277 119.456 111.715C119.261 111.677 119.059 111.683 118.867 111.733C118.675 111.783 118.498 111.875 118.351 112.002C118.204 112.129 118.091 112.287 118.022 112.463C117.952 112.639 117.928 112.828 117.951 113.015L122.204 140.78C122.748 142.224 131.731 154.51 136.75 160.689C145.129 171.008 157.472 164.404 160.857 157.182C163.588 151.444 167.773 142.738 168.879 139.528Z" fill="#436850"/>
<path d="M152.155 156.266C152 155.667 151.92 155.053 151.917 154.437C151.814 152.968 151.612 151.508 151.313 150.063C151.006 148.628 150.47 147.246 149.722 145.963C149.144 144.992 148.642 144.462 148.702 144.414C149.236 144.784 149.68 145.257 150.003 145.802C150.855 147.08 151.452 148.494 151.764 149.975C152.074 151.439 152.234 152.928 152.24 154.421C152.294 155.037 152.265 155.657 152.155 156.266Z" fill="#263238"/>
<path d="M155.796 150.529C155.719 150.529 155.66 149.936 155.354 149.029C154.948 147.853 154.268 146.778 153.363 145.883C152.527 144.942 151.345 144.332 150.054 144.174C149.518 144.177 148.986 144.264 148.48 144.431C148.429 144.431 148.948 143.901 150.063 143.869C150.76 143.905 151.442 144.074 152.067 144.368C152.691 144.662 153.246 145.074 153.695 145.578C154.654 146.516 155.334 147.676 155.668 148.941C155.844 149.453 155.888 149.998 155.796 150.529Z" fill="#263238"/>
<path d="M118.648 115.141C118.56 115.259 118.457 115.366 118.342 115.461L117.959 115.831C117.823 115.999 117.661 116.176 117.483 116.376C116.5 117.548 115.769 118.889 115.331 120.324C114.676 122.45 114.517 124.683 114.863 126.872C115.037 128.164 115.395 129.427 115.926 130.628C116.53 131.916 117.203 133.175 117.942 134.399C120.987 139.447 124.126 143.812 126.389 146.966C127.512 148.49 128.439 149.742 129.128 150.665C129.481 151.107 129.811 151.565 130.115 152.037C130.115 152.037 129.996 151.941 129.8 151.724C129.605 151.508 129.324 151.195 128.95 150.769C128.244 149.967 127.248 148.691 126.091 147.142C123.036 143.101 120.197 138.917 117.585 134.608C116.835 133.373 116.156 132.101 115.552 130.796C115 129.57 114.626 128.28 114.437 126.961C114.108 124.714 114.308 122.426 115.024 120.26C115.498 118.801 116.289 117.451 117.347 116.296L117.866 115.774L118.282 115.429C118.512 115.213 118.631 115.124 118.648 115.141Z" fill="#263238"/>
<path d="M118.674 188.903C118.558 188.971 118.432 189.023 118.299 189.056L117.177 189.425C116.692 189.585 116.096 189.762 115.39 189.938C114.684 190.115 113.885 190.356 112.991 190.532C110.896 191.005 108.774 191.372 106.637 191.632C101.395 192.279 96.087 192.295 90.8405 191.68C88.7046 191.426 86.5838 191.07 84.4862 190.613C83.5845 190.436 82.7849 190.211 82.0789 190.027C81.3728 189.842 80.7774 189.682 80.284 189.521L79.1697 189.16C78.9145 189.08 78.7784 189.024 78.7869 189.008C78.9251 189.02 79.0617 189.044 79.1952 189.08L80.3351 189.361C80.8284 189.489 81.4324 189.642 82.1469 189.794C82.8615 189.946 83.6526 190.155 84.5543 190.308C86.3406 190.677 88.4928 191.006 90.8916 191.279C93.499 191.549 96.12 191.686 98.7431 191.688C101.364 191.669 103.982 191.519 106.586 191.238C108.985 190.958 111.128 190.613 112.915 190.235C113.817 190.075 114.616 189.866 115.322 189.706C116.028 189.545 116.632 189.393 117.126 189.264L118.265 188.976C118.396 188.93 118.534 188.906 118.674 188.903Z" fill="#263238"/>
<g opacity="0.3">
<path d="M72.3474 158.987L74.7718 155.432L73.5043 127.435L72.3474 158.987Z" fill="black"/>
</g>
<g opacity="0.3">
<path d="M114.293 125.54C114.293 125.54 114.369 135.739 116.845 139.784C119.32 143.828 125.241 152.559 125.241 152.037C125.241 151.515 124.909 144.815 124.909 144.815C124.909 144.815 114.344 131.245 114.293 125.54Z" fill="black"/>
</g>
<path d="M70.1953 159.862C69.9578 159.988 69.6932 160.063 69.4212 160.079C68.6771 160.155 67.9244 160.062 67.2266 159.806C66.1954 159.436 65.2673 158.848 64.513 158.089C63.62 157.154 62.8567 156.116 62.2418 154.999C61.6419 153.892 60.9715 152.82 60.2342 151.79C59.6233 150.977 58.8729 150.267 58.014 149.687C57.2015 149.18 56.2861 148.839 55.326 148.684C55.6066 148.63 55.896 148.63 56.1766 148.684C56.9098 148.797 57.6105 149.051 58.2352 149.43C59.1499 150.002 59.9529 150.719 60.6085 151.549C61.3701 152.574 62.0579 153.646 62.6671 154.759C63.2656 155.846 63.9964 156.864 64.8447 157.792C65.5574 158.526 66.4272 159.108 67.3967 159.501C68.2805 159.849 69.245 159.973 70.1953 159.862Z" fill="white"/>
<path d="M73.4874 142.255C73.4108 142.255 73.2237 141.646 72.7048 140.747C72.0254 139.576 71.0902 138.554 69.9611 137.749C68.832 136.944 67.5347 136.374 66.1548 136.077C65.0915 135.852 64.4025 135.852 64.4025 135.78C64.9967 135.658 65.6116 135.658 66.2058 135.78C67.6673 136.006 69.0493 136.562 70.2341 137.4C71.4189 138.238 72.3716 139.334 73.011 140.594C73.2953 141.109 73.4578 141.676 73.4874 142.255Z" fill="white"/>
<path d="M114.489 127.225C114.489 127.225 113.902 127.121 112.847 127.04C111.355 126.943 109.856 127.07 108.406 127.417C106.254 127.949 104.179 128.73 102.231 129.745C100.002 130.844 97.6457 132.24 94.9747 133.396C92.4631 134.501 89.7535 135.152 86.9871 135.314C84.7314 135.437 82.4689 135.24 80.2755 134.728C78.8026 134.39 77.3756 133.895 76.0223 133.251C75.5374 133.035 75.1716 132.818 74.9419 132.69C74.7123 132.561 74.5762 132.473 74.5847 132.457C74.5932 132.441 75.1291 132.698 76.0988 133.099C77.4653 133.679 78.8903 134.128 80.3521 134.439C82.5187 134.902 84.7449 135.067 86.9616 134.928C89.6741 134.745 92.3288 134.098 94.7961 133.019C97.4246 131.879 99.7893 130.499 102.044 129.407C104.022 128.388 106.136 127.625 108.33 127.137C109.814 126.802 111.348 126.715 112.864 126.88C113.274 126.925 113.681 126.997 114.08 127.096C114.222 127.12 114.36 127.163 114.489 127.225Z" fill="white"/>
<path d="M124.943 154.991C124.789 155.061 124.626 155.112 124.458 155.144C123.984 155.283 123.501 155.395 123.012 155.481C121.224 155.819 119.399 155.957 117.576 155.89C114.875 155.784 112.191 155.429 109.563 154.831C106.586 154.189 103.388 153.266 100.028 152.335C96.8818 151.436 93.6686 150.763 90.4152 150.321C87.7648 149.962 85.075 149.943 82.4192 150.265C80.6285 150.483 78.879 150.937 77.2217 151.613C76.0563 152.094 75.4353 152.415 75.4183 152.415C75.547 152.307 75.69 152.216 75.8437 152.142C76.1499 151.998 76.5582 151.717 77.1537 151.476C78.8074 150.739 80.5673 150.236 82.3766 149.984C85.0603 149.632 87.7827 149.632 90.4663 149.984C93.7443 150.406 96.9814 151.074 100.147 151.982C103.549 152.913 106.705 153.844 109.657 154.502C112.255 155.118 114.91 155.5 117.585 155.641C119.391 155.732 121.201 155.64 122.987 155.368C124.245 155.12 124.935 154.951 124.943 154.991Z" fill="white"/>
<path d="M125.241 170.862C122.997 169.914 120.608 169.307 118.163 169.065C115.508 168.864 112.836 168.95 110.201 169.322C107.216 169.707 103.966 170.349 100.538 170.927C97.1098 171.504 93.8263 172.066 90.798 172.315C88.1216 172.571 85.4237 172.555 82.7509 172.267C80.9465 172.065 79.1735 171.663 77.4684 171.071C76.8644 170.878 76.4221 170.646 76.1158 170.525C75.9537 170.468 75.7995 170.393 75.6565 170.301C75.6565 170.26 76.32 170.533 77.5279 170.918C79.2365 171.441 80.9984 171.794 82.7849 171.97C85.4375 172.23 88.1115 172.23 90.764 171.97C93.7583 171.705 97.0333 171.167 100.461 170.557C103.889 169.948 107.139 169.314 110.15 168.952C112.815 168.588 115.517 168.528 118.197 168.776C120.006 168.96 121.778 169.382 123.463 170.028C123.921 170.202 124.367 170.403 124.798 170.63C124.954 170.692 125.103 170.77 125.241 170.862Z" fill="white"/>
<path d="M97.5946 191.326C97.2916 191.188 97.0062 191.019 96.744 190.82C96.2166 190.467 95.451 189.97 94.4898 189.376C91.9971 187.82 89.4 186.418 86.7149 185.179C84.0204 183.942 81.2444 182.87 78.404 181.969C77.3152 181.624 76.4305 181.367 75.8521 181.167C75.5241 181.098 75.2068 180.99 74.9079 180.846C75.2418 180.867 75.5725 180.92 75.8946 181.006C76.5326 181.135 77.4343 181.359 78.5401 181.664C84.3189 183.295 89.7778 185.802 94.7024 189.087C95.6467 189.713 96.4037 190.25 96.8801 190.644C97.1463 190.843 97.3862 191.072 97.5946 191.326Z" fill="white"/>
<path d="M123.778 191.053C123.241 191.434 122.636 191.719 121.991 191.896C118.903 192.931 115.514 192.834 112.498 191.623C111.878 191.401 111.302 191.081 110.797 190.676C111.424 190.871 112.04 191.096 112.643 191.35C114.131 191.835 115.688 192.105 117.262 192.152C118.837 192.192 120.41 191.999 121.923 191.583C123.055 191.294 123.744 190.989 123.778 191.053Z" fill="white"/>
<path d="M142.398 138.075C142.416 138.317 142.381 138.56 142.296 138.789C142.094 139.423 141.755 140.01 141.301 140.515C140.628 141.256 139.818 141.876 138.911 142.344C137.812 142.898 136.676 143.38 135.508 143.789C134.364 144.194 133.278 144.733 132.276 145.394C131.478 145.945 130.821 146.658 130.353 147.48C129.934 148.247 129.746 149.107 129.809 149.968C129.687 149.753 129.628 149.512 129.639 149.269C129.611 148.603 129.761 147.942 130.072 147.344C130.525 146.458 131.192 145.686 132.02 145.089C133.04 144.389 134.156 143.825 135.338 143.411C136.498 143.005 137.634 142.539 138.741 142.015C139.615 141.578 140.408 141.009 141.088 140.33C141.684 139.671 142.13 138.904 142.398 138.075Z" fill="white"/>
<path d="M131.944 121.047C131.935 121.296 131.886 121.542 131.799 121.778C131.734 122.051 131.645 122.319 131.535 122.58C131.413 122.946 131.268 123.305 131.102 123.655C130.68 124.576 130.167 125.457 129.57 126.287C128.822 127.297 127.967 128.232 127.019 129.08C126.064 129.917 125.021 130.659 123.905 131.295C122.992 131.807 122.029 132.237 121.03 132.579C120.648 132.714 120.259 132.829 119.865 132.924C119.586 133.007 119.302 133.071 119.014 133.116C118.759 133.181 118.496 133.213 118.231 133.212C118.231 133.132 119.312 132.932 120.962 132.298C121.914 131.927 122.833 131.484 123.709 130.974C125.878 129.703 127.755 128.036 129.23 126.071C129.834 125.273 130.363 124.427 130.812 123.543C131.586 122.042 131.859 121.023 131.944 121.047Z" fill="white"/>
<path d="M115.569 110.52C115.173 110.724 114.76 110.898 114.335 111.041C113.536 111.362 112.345 111.763 110.856 112.205C109.368 112.646 107.573 113.079 105.548 113.473C101.154 114.297 96.668 114.607 92.193 114.395C90.3671 114.31 88.5472 114.136 86.7403 113.874C85.2007 113.641 83.9672 113.408 83.1166 113.2C82.6725 113.122 82.2368 113.007 81.8151 112.855C82.2679 112.884 82.7174 112.949 83.1591 113.047C84.0098 113.2 85.2517 113.392 86.7829 113.577C88.314 113.761 90.1855 113.93 92.21 114.01C94.4306 114.085 96.6539 114.051 98.8706 113.906C101.084 113.746 103.287 113.478 105.472 113.103C107.479 112.734 109.283 112.301 110.771 111.924C112.26 111.547 113.459 111.17 114.276 110.897C114.695 110.738 115.128 110.612 115.569 110.52Z" fill="white"/>
<path d="M148.991 145.418C149.137 145.669 149.24 145.939 149.297 146.22C149.501 146.98 149.623 147.757 149.663 148.54C149.693 151.122 149.408 153.699 148.812 156.219C148.58 157.628 148.192 159.01 147.655 160.344C147.204 161.441 146.535 162.446 145.682 163.305C145.108 163.886 144.421 164.358 143.657 164.693C143.394 164.829 143.105 164.917 142.807 164.95C143.81 164.5 144.714 163.873 145.469 163.104C146.26 162.248 146.88 161.264 147.298 160.199C147.799 158.881 148.166 157.522 148.395 156.139C148.975 153.646 149.297 151.107 149.357 148.556C149.298 147.504 149.176 146.456 148.991 145.418Z" fill="white"/>
<path d="M166.072 147.505C165.995 147.505 165.595 146.702 164.711 145.467C163.537 143.883 162.081 142.504 160.407 141.39C158.724 140.288 156.85 139.473 154.869 138.983C153.346 138.614 152.317 138.549 152.368 138.477C152.598 138.436 152.835 138.436 153.065 138.477C153.695 138.507 154.321 138.587 154.937 138.718C155.861 138.904 156.764 139.173 157.633 139.52C159.772 140.355 161.691 141.62 163.256 143.228C163.89 143.881 164.459 144.588 164.957 145.338C165.291 145.848 165.576 146.385 165.808 146.943C165.926 147.117 166.015 147.306 166.072 147.505Z" fill="white"/>
<g opacity="0.3">
<path d="M116.062 189.553C116.266 189.458 116.446 189.323 116.589 189.157C116.732 188.991 116.835 188.798 116.892 188.59C116.949 188.383 116.957 188.167 116.916 187.956C116.876 187.745 116.788 187.545 116.658 187.37C116.34 187.07 115.955 186.842 115.531 186.703C115.106 186.564 114.654 186.518 114.208 186.567C109.81 186.648 105.974 189.424 101.652 190.17C98.3688 190.732 94.9748 190.098 91.7763 189.183C88.5779 188.269 85.456 187.073 82.1725 186.487C81.4934 186.323 80.7837 186.307 80.0969 186.439C79.7538 186.51 79.44 186.674 79.1938 186.911C78.9477 187.147 78.7797 187.446 78.7104 187.771C78.6253 188.421 78.7869 188.911 79.8247 189.24C79.8247 189.24 90.7045 192.096 98.539 191.984C104.455 191.762 110.329 190.947 116.062 189.553Z" fill="black"/>
</g>
<path d="M342.743 307.327H283.402V315.023H342.743V307.327Z" fill="#263238"/>
<path d="M342.845 315.12H283.3V307.231H342.845V315.12ZM283.504 314.927H342.641V307.424H283.504V314.927Z" fill="#263238"/>
<path d="M288.905 312.463L297.446 352.208H329.056L337.307 315.023L288.905 312.463Z" fill="#263238"/>
<path d="M288.905 348.453L293.465 354.359H331.88L337.307 348.453H288.905Z" fill="#455A64"/>
<path d="M310.844 313.619C310.733 313.619 310.58 295.202 310.512 272.493C310.444 249.784 310.512 231.359 310.605 231.359C310.699 231.359 310.869 249.768 310.937 272.493C311.005 295.218 310.963 313.619 310.844 313.619Z" fill="#263238"/>
<path d="M324.063 267.533C324.031 267.68 323.979 267.823 323.91 267.959C323.765 268.271 323.595 268.673 323.374 269.154L322.991 270.013C322.863 270.334 322.736 270.687 322.591 271.056C322.446 271.425 322.302 271.858 322.14 272.26C321.979 272.661 321.851 273.142 321.698 273.624C320.993 275.873 320.439 278.162 320.039 280.477C319.575 283.319 319.268 286.182 319.12 289.055C318.901 294.278 319.057 299.508 319.588 304.711C319.775 306.709 319.971 308.33 320.116 309.445C320.175 309.967 320.226 310.392 320.26 310.729C320.283 310.878 320.283 311.03 320.26 311.179C320.202 311.037 320.165 310.888 320.15 310.737L319.92 309.461C319.733 308.354 319.495 306.741 319.265 304.743C318.644 299.53 318.445 294.28 318.67 289.039C318.817 286.154 319.138 283.279 319.631 280.429C320.047 278.101 320.632 275.803 321.383 273.552C321.553 273.07 321.689 272.605 321.86 272.179L322.344 270.984L322.778 269.949C322.923 269.636 323.076 269.355 323.204 269.098L323.807 267.934C323.875 267.791 323.961 267.657 324.063 267.533Z" fill="#263238"/>
<path d="M322.591 252.64C322.55 252.848 322.487 253.052 322.404 253.25C322.251 253.675 322.047 254.245 321.783 254.959L321.332 256.195C321.179 256.652 321.026 257.149 320.856 257.679C320.507 258.746 320.107 259.958 319.75 261.322C319.554 261.996 319.359 262.71 319.154 263.449C318.95 264.187 318.789 264.973 318.593 265.776C318.176 267.381 317.878 269.122 317.496 270.944C316.841 274.595 316.271 278.639 315.871 282.908C315.471 287.177 315.335 291.254 315.275 294.945C315.216 298.636 315.275 301.998 315.48 304.807C315.531 306.211 315.624 307.479 315.701 308.587C315.777 309.694 315.845 310.657 315.913 311.443C315.982 312.23 316.024 312.799 316.067 313.249C316.087 313.457 316.087 313.667 316.067 313.875C316.01 313.673 315.976 313.466 315.964 313.257C315.905 312.808 315.828 312.206 315.735 311.459C315.641 310.713 315.539 309.718 315.446 308.603C315.352 307.487 315.233 306.195 315.156 304.823C314.961 302.015 314.876 298.668 314.867 294.945C314.859 291.222 315.054 287.137 315.437 282.86C315.82 278.583 316.424 274.523 317.096 270.863C317.496 269.034 317.802 267.292 318.236 265.688C318.44 264.885 318.627 264.083 318.814 263.36C319.001 262.638 319.239 261.908 319.444 261.226C319.818 259.87 320.243 258.658 320.609 257.599C320.796 257.069 320.966 256.572 321.119 256.114C321.273 255.657 321.46 255.264 321.613 254.895L322.302 253.201C322.381 253.007 322.478 252.819 322.591 252.64Z" fill="#263238"/>
<path d="M307.092 316.877C307.083 316.805 307.083 316.732 307.092 316.66C307.092 316.499 307.092 316.291 307.041 316.026L306.863 313.619C306.718 311.468 306.522 308.411 306.267 304.647C305.757 297.072 305.008 286.608 303.656 275.101C302.967 269.355 302.167 263.867 301.333 258.94C300.891 256.46 300.483 254.125 300.032 251.918C299.581 249.711 299.181 247.697 298.756 245.836C298.331 243.974 297.905 242.313 297.582 240.844C297.259 239.376 296.902 238.108 296.629 237.081L296.008 234.673C295.949 234.425 295.898 234.216 295.864 234.056C295.839 233.985 295.825 233.913 295.821 233.839C295.856 233.905 295.882 233.975 295.898 234.048C295.949 234.208 296.017 234.409 296.093 234.657C296.255 235.219 296.493 236.014 296.782 237.009C297.072 238.004 297.446 239.288 297.812 240.756C298.178 242.224 298.662 243.886 299.045 245.747C299.428 247.609 299.947 249.631 300.381 251.83C300.815 254.029 301.231 256.372 301.716 258.843C302.567 263.802 303.417 269.275 304.081 275.029C305.434 286.544 306.131 297.016 306.565 304.599C306.786 308.387 306.939 311.452 307.024 313.579C307.024 314.614 307.101 315.432 307.126 315.986C307.126 316.243 307.126 316.451 307.126 316.62C307.128 316.707 307.117 316.793 307.092 316.877Z" fill="#263238"/>
<path d="M310.359 240.211C310.104 237.603 307.313 235.637 304.532 235.613C301.75 235.589 299.164 237.153 297.471 239.224C295.872 241.375 294.717 243.793 294.069 246.349C292.197 252.496 291.177 258.956 291.976 265.303C292.776 271.651 295.506 277.902 300.33 282.396C301.121 283.126 302.133 283.848 303.213 283.631C303.795 283.47 304.321 283.166 304.736 282.749C309.464 278.663 313.212 273.671 315.728 268.107C318.244 262.544 319.47 256.537 319.325 250.49C319.248 248.083 318.916 245.563 317.496 243.557C316.075 241.551 312.775 239.408 310.359 240.211Z" fill="#436850"/>
<path d="M289.62 219.314L285.707 225.998C285.622 226.151 285.494 226.327 285.307 226.343C285.12 226.359 284.95 226.175 284.839 226.014L274.495 211.041L276.877 209.765L289.62 219.314Z" fill="#436850"/>
<g opacity="0.2">
<path d="M289.62 219.314L285.707 225.998C285.622 226.151 285.494 226.327 285.307 226.343C285.12 226.359 284.95 226.175 284.839 226.014L274.495 211.041L276.877 209.765L289.62 219.314Z" fill="black"/>
</g>
<path d="M310.605 231.36L275.321 211.724C274.943 211.563 274.64 211.277 274.47 210.921C274.449 210.666 274.496 210.41 274.606 210.176C274.716 209.943 274.885 209.738 275.099 209.581C277.525 207.208 280.464 205.356 283.717 204.151C286.97 202.946 290.46 202.417 293.95 202.6C297.432 202.841 300.801 203.876 303.764 205.618C306.728 207.36 309.199 209.756 310.963 212.598C314.365 218.336 314.484 225.927 310.58 231.376" fill="#436850"/>
<path d="M280.408 205.447C280.558 205.415 280.712 205.399 280.867 205.399C281.173 205.399 281.624 205.327 282.202 205.335C283.841 205.317 285.479 205.44 287.094 205.704C289.5 206.086 291.844 206.757 294.069 207.702C297.916 209.336 301.333 211.751 304.075 214.775C306.818 217.799 308.818 221.357 309.933 225.195C310.363 226.687 310.647 228.213 310.784 229.753C310.844 230.299 310.835 230.724 310.852 231.013C310.876 231.157 310.876 231.303 310.852 231.446C310.852 231.446 310.776 230.845 310.631 229.769C309.934 223.937 307.262 218.472 303.011 214.185C298.76 209.899 293.157 207.02 287.034 205.977C285.437 205.693 283.818 205.529 282.194 205.487C281.045 205.463 280.408 205.487 280.408 205.447Z" fill="#263238"/>
<path d="M305.825 217.807C305.265 218.14 304.665 218.409 304.039 218.609C302.916 219.026 301.35 219.564 299.59 220.086C297.829 220.607 296.187 221.033 295.047 221.305C294.422 221.489 293.777 221.605 293.125 221.65C293.715 221.384 294.334 221.176 294.971 221.033L299.462 219.708L303.945 218.344C304.549 218.1 305.179 217.92 305.825 217.807Z" fill="#263238"/>
<path d="M300.27 203.723C300.582 204.938 300.722 206.188 300.687 207.438C300.789 208.685 300.717 209.94 300.474 211.169C300.293 209.936 300.222 208.691 300.262 207.446C300.159 206.207 300.162 204.962 300.27 203.723Z" fill="#263238"/>
<path d="M275.014 211.346C275.838 210.995 276.692 210.711 277.566 210.495C279.174 210.03 281.403 209.436 283.887 208.89C286.371 208.345 288.65 207.887 290.301 207.614C291.187 207.425 292.089 207.313 292.997 207.277C292.134 207.54 291.253 207.747 290.36 207.895C288.727 208.24 286.473 208.698 283.989 209.275C281.505 209.853 279.268 210.391 277.651 210.784C276.788 211.03 275.906 211.218 275.014 211.346Z" fill="#263238"/>
<path d="M294.333 234.041C291.296 231.866 288.089 231.441 284.286 231.585C280.464 231.819 276.722 232.725 273.254 234.257C267.299 236.721 261.71 240.34 258.163 245.491C254.616 250.643 253.365 257.408 256.028 262.993C256.234 263.579 256.665 264.071 257.236 264.373C257.896 264.553 258.603 264.502 259.226 264.229C265.989 262.15 272.837 260.048 279.029 256.79C285.222 253.532 290.938 248.99 294.247 243.06C295.106 241.662 295.653 240.114 295.855 238.51C295.95 237.707 295.86 236.894 295.591 236.127C295.323 235.36 294.882 234.656 294.299 234.065" fill="#436850"/>
<path d="M294.392 233.366C294.236 233.44 294.074 233.502 293.907 233.551L292.487 234.008L291.466 234.337C291.092 234.458 290.692 234.618 290.266 234.779C289.416 235.099 288.412 235.428 287.366 235.91L285.707 236.616C285.129 236.873 284.559 237.178 283.946 237.475C282.721 238.036 281.479 238.767 280.161 239.505C277.34 241.179 274.661 243.057 272.148 245.122C269.664 247.215 267.353 249.481 265.232 251.903C264.296 253.05 263.369 254.118 262.62 255.193C262.229 255.723 261.838 256.22 261.498 256.726L260.536 258.194C259.898 259.109 259.43 260 258.98 260.754L258.359 261.821L257.891 262.744L257.227 264.012C257.159 264.162 257.074 264.305 256.972 264.437C257.009 264.278 257.07 264.124 257.151 263.98L257.746 262.672C257.874 262.391 258.027 262.078 258.18 261.741C258.333 261.404 258.554 261.043 258.767 260.65C259.201 259.847 259.618 258.98 260.281 258.05L261.225 256.565C261.557 256.052 261.948 255.546 262.331 255C263.071 253.917 263.99 252.834 264.934 251.678C269.134 246.728 274.218 242.508 279.957 239.208C281.292 238.47 282.551 237.756 283.784 237.194C284.405 236.905 284.984 236.6 285.571 236.391L287.272 235.693C288.335 235.228 289.339 234.891 290.207 234.61L291.423 234.201L292.461 233.912L293.907 233.519C294.062 233.451 294.225 233.4 294.392 233.366Z" fill="#263238"/>
<path d="M270.702 245.474C268.288 246.345 265.826 247.093 263.326 247.712C260.864 248.464 258.359 249.085 255.824 249.574C258.24 248.703 260.705 247.956 263.207 247.335C265.667 246.586 268.169 245.964 270.702 245.474Z" fill="#263238"/>
<path d="M270.387 260.841C270.254 260.124 270.2 259.395 270.225 258.667C270.183 257.327 270.174 255.457 270.225 253.427C270.276 251.397 270.404 249.527 270.523 248.187C270.549 247.463 270.646 246.743 270.812 246.036C270.88 246.757 270.88 247.482 270.812 248.203C270.812 249.679 270.71 251.461 270.642 253.435C270.574 255.409 270.54 257.198 270.506 258.667C270.53 259.393 270.49 260.121 270.387 260.841Z" fill="#263238"/>
<path d="M284.312 254.132C284.193 254.132 283.827 250.368 283.461 245.714C283.096 241.06 282.934 237.28 283.053 237.272C283.172 237.264 283.538 241.036 283.904 245.69C284.269 250.344 284.457 254.124 284.312 254.132Z" fill="#263238"/>
<path d="M266.967 236.896C267.751 236.804 268.543 236.78 269.332 236.824C270.795 236.824 272.811 236.88 275.031 236.944C277.252 237.009 279.285 237.097 280.722 237.185C281.513 237.189 282.301 237.258 283.079 237.393C282.294 237.486 281.503 237.511 280.714 237.465C279.259 237.465 277.243 237.417 275.014 237.345C272.786 237.273 270.761 237.193 269.324 237.105C268.533 237.101 267.745 237.031 266.967 236.896Z" fill="#263238"/>
<path d="M301.844 284.186C301.816 284.035 301.798 283.882 301.793 283.728C301.793 283.391 301.793 282.926 301.733 282.42C301.682 281.289 301.665 279.644 301.733 277.606C301.801 275.567 301.912 273.16 302.167 270.48C302.422 267.8 302.839 264.863 303.409 261.813C303.979 258.764 304.693 255.867 305.416 253.267C306.139 250.667 306.914 248.356 307.62 246.438C308.326 244.521 308.93 242.972 309.397 241.921L309.933 240.717C309.99 240.574 310.061 240.437 310.146 240.308C310.122 240.459 310.079 240.607 310.018 240.749C309.891 241.07 309.738 241.479 309.551 241.977C309.134 243.044 308.564 244.593 307.9 246.527C307.237 248.461 306.514 250.772 305.791 253.364C305.068 255.955 304.404 258.836 303.826 261.878C303.247 264.919 302.847 267.848 302.558 270.512C302.269 273.176 302.107 275.591 302.031 277.622C301.954 279.652 301.912 281.289 301.912 282.436C301.912 282.966 301.912 283.399 301.912 283.744C301.908 283.894 301.885 284.042 301.844 284.186Z" fill="#263238"/>
<path d="M303.707 261.475C303.298 262.009 302.827 262.499 302.303 262.935C301.384 263.794 300.091 264.941 298.611 266.145C297.131 267.349 295.753 268.432 294.732 269.17C294.208 269.6 293.638 269.976 293.031 270.294C293.485 269.819 293.983 269.384 294.52 268.994L298.305 265.88L302.073 262.742C302.574 262.272 303.121 261.847 303.707 261.475Z" fill="#263238"/>
<path d="M314.876 269.966C314.326 269.349 313.825 268.695 313.379 268.008L309.891 263.193L306.327 258.443C305.799 257.81 305.324 257.139 304.906 256.437C305.53 257 306.099 257.615 306.607 258.274C307.586 259.446 308.896 261.099 310.274 262.968C311.652 264.838 312.826 266.571 313.676 267.847C314.144 268.517 314.546 269.226 314.876 269.966Z" fill="#263238"/>
<path d="M309.023 243.315C309.091 243.404 305.383 245.763 300.738 248.58C296.093 251.396 292.291 253.595 292.232 253.499C292.172 253.402 295.881 251.051 300.517 248.243C305.153 245.434 308.981 243.179 309.023 243.315Z" fill="#263238"/>
<path d="M319.486 253.924C317.52 252.395 315.646 250.763 313.872 249.037C312.001 247.402 310.226 245.672 308.555 243.854C310.518 245.39 312.392 247.024 314.17 248.748C316.042 250.38 317.817 252.107 319.486 253.924Z" fill="#263238"/>
<path d="M322.115 253.748L325.296 253.499C327.556 253.327 329.75 252.694 331.727 251.646C332.694 251.11 333.697 250.636 334.73 250.225C338.668 248.733 343.058 248.998 347.294 248.797C354.231 248.469 361.029 246.832 367.284 243.982C367.64 243.819 367.937 243.559 368.135 243.236C368.79 242.113 367.573 241.109 366.527 240.5C361.159 237.378 355.698 234.224 349.616 232.676C343.534 231.127 336.627 231.392 331.438 234.762C325.339 238.718 323.118 246.799 322.081 253.748" fill="#436850"/>
<path d="M368.228 242.826C368.043 242.761 367.863 242.68 367.692 242.586L366.178 241.839C364.868 241.189 362.988 240.234 360.606 239.159C357.834 237.872 354.944 236.822 351.972 236.021C348.344 235.036 344.544 234.744 340.795 235.163C337.034 235.557 333.481 236.995 330.587 239.295C328.329 241.273 326.523 243.665 325.279 246.325C324.411 248.114 323.639 249.943 322.965 251.806C322.736 252.432 322.54 252.937 322.404 253.322C322.346 253.503 322.269 253.678 322.174 253.844C322.211 253.659 322.259 253.477 322.319 253.298L322.812 251.758C323.421 249.868 324.154 248.016 325.007 246.213C326.227 243.481 328.041 241.02 330.332 238.991C333.27 236.628 336.89 235.149 340.727 234.746C344.534 234.323 348.393 234.626 352.074 235.636C355.057 236.453 357.953 237.527 360.726 238.846C363.099 239.962 364.979 240.957 366.255 241.647L367.726 242.449C367.909 242.555 368.078 242.682 368.228 242.826Z" fill="#263238"/>
<path d="M360.581 246.703C360.513 246.791 356.328 244.247 351.283 241.021C346.239 237.795 342.147 235.107 342.216 235.019C342.284 234.931 346.469 237.426 351.513 240.692C356.557 243.958 360.649 246.606 360.581 246.703Z" fill="#263238"/>
<path d="M356.617 234.642C355.578 235.015 354.479 235.221 353.368 235.251C352.267 235.415 351.145 235.401 350.05 235.211C351.129 235.007 352.225 234.889 353.325 234.858C354.414 234.698 355.515 234.626 356.617 234.642Z" fill="#263238"/>
<path d="M337.903 231.48C337.566 232.394 337.106 233.263 336.533 234.064C336.085 234.936 335.512 235.746 334.832 236.472C335.168 235.558 335.628 234.69 336.201 233.888C336.653 233.018 337.225 232.208 337.903 231.48Z" fill="#263238"/>
<path d="M341.637 249.013C340.934 248.738 340.264 248.394 339.638 247.986C338.43 247.296 336.805 246.293 335.07 245.097C333.335 243.902 331.795 242.786 330.698 241.96C330.089 241.541 329.52 241.074 328.996 240.563C329.671 240.893 330.309 241.286 330.902 241.735L335.342 244.776C337.044 245.964 338.668 247.007 339.825 247.753C340.466 248.125 341.072 248.546 341.637 249.013Z" fill="#263238"/>
<path d="M326.844 266.475C323.807 265.721 320.192 268.505 319.563 271.41C318.933 274.315 320.09 277.284 321.443 279.956C324.319 285.956 328.601 291.262 333.964 295.475C339.4 299.568 346.214 302.184 353.163 302.144C351.879 296.527 353.504 290.645 352.789 284.931C352.162 279.894 349.74 275.206 345.92 271.637C342.099 268.068 337.107 265.829 331.761 265.287C329.822 265.087 327.576 264.798 326.802 266.491" fill="#436850"/>
<path d="M353.163 302.127C353.013 302.084 352.87 302.022 352.738 301.942C352.336 301.734 351.955 301.492 351.598 301.22C350.323 300.176 349.3 298.887 348.595 297.44C348.111 296.55 347.575 295.587 347.047 294.519C346.52 293.452 345.984 292.313 345.414 291.109C344.822 289.861 344.152 288.647 343.406 287.474C342.583 286.226 341.658 285.041 340.642 283.927C338.558 281.624 336.329 279.626 334.398 277.724C332.647 276.06 331.053 274.256 329.634 272.332C328.683 271.028 327.901 269.622 327.304 268.143C327.147 267.74 327.014 267.331 326.904 266.915C326.858 266.77 326.824 266.623 326.802 266.474C326.844 266.474 327.014 267.059 327.457 268.079C328.107 269.518 328.92 270.887 329.881 272.163C331.323 274.048 332.924 275.819 334.67 277.459C336.618 279.345 338.864 281.335 340.965 283.662C341.992 284.791 342.925 285.993 343.755 287.257C344.508 288.448 345.178 289.684 345.763 290.956L347.362 294.375C347.872 295.434 348.4 296.405 348.868 297.296C349.529 298.729 350.493 300.021 351.7 301.091C352.593 301.822 353.214 302.094 353.163 302.127Z" fill="#263238"/>
<path d="M337.46 297.458C337.474 296.805 337.568 296.156 337.741 295.524C337.979 294.344 338.371 292.723 338.889 290.966C339.408 289.209 339.987 287.62 340.438 286.496C340.647 285.873 340.933 285.276 341.288 284.715C341.171 285.356 340.989 285.985 340.744 286.593C340.37 287.732 339.851 289.313 339.323 291.07C338.796 292.828 338.371 294.425 338.056 295.588C337.918 296.227 337.718 296.853 337.46 297.458Z" fill="#263238"/>
<path d="M352.593 283.647C351.866 283.55 351.149 283.395 350.45 283.181C349.14 282.861 347.336 282.419 345.346 281.986C343.355 281.553 341.501 281.232 340.174 280.991C339.447 280.904 338.73 280.756 338.03 280.549C338.766 280.528 339.502 280.582 340.225 280.71C341.569 280.878 343.423 281.167 345.439 281.601C347.455 282.034 349.267 282.515 350.543 282.909C351.254 283.081 351.942 283.329 352.593 283.647Z" fill="#263238"/>
<path d="M326.189 287.66C326.218 286.907 326.329 286.16 326.521 285.429C326.785 284.057 327.21 282.179 327.78 280.125C328.35 278.071 328.954 276.233 329.422 274.917C329.629 274.191 329.914 273.486 330.272 272.814C330.135 273.555 329.939 274.284 329.685 274.997C329.286 276.337 328.724 278.207 328.163 280.221C327.601 282.235 327.125 284.137 326.785 285.485C326.649 286.224 326.45 286.951 326.189 287.66Z" fill="#263238"/>
<path d="M345.627 271.61C345.627 271.722 341.816 271.425 337.12 270.96C334.296 270.747 331.485 270.399 328.699 269.917C328.699 269.812 332.501 270.101 337.163 270.567C340.001 270.779 342.826 271.128 345.627 271.61Z" fill="#263238"/>
<path d="M342.845 314.991C342.845 315.095 329.515 315.183 313.072 315.183C296.629 315.183 283.3 315.095 283.3 314.991C283.3 314.886 296.621 314.79 313.072 314.79C329.524 314.79 342.845 314.878 342.845 314.991Z" fill="#455A64"/>
<path d="M333.573 331.168C333.573 331.281 324.59 331.369 313.515 331.369C302.439 331.369 293.456 331.281 293.456 331.168C293.456 331.056 302.431 330.968 313.515 330.968C324.599 330.968 333.573 331.056 333.573 331.168Z" fill="#455A64"/>
<path d="M333.922 333.479C333.922 333.591 324.939 333.68 313.863 333.68C302.788 333.68 293.805 333.591 293.805 333.479C293.805 333.367 302.788 333.278 313.863 333.278C324.939 333.278 333.922 333.375 333.922 333.479Z" fill="#455A64"/>
<path d="M333.922 329.258C333.922 329.37 324.633 329.459 313.174 329.459C301.716 329.459 292.427 329.37 292.427 329.258C292.427 329.146 301.716 329.065 313.174 329.065C324.633 329.065 333.922 329.178 333.922 329.258Z" fill="#455A64"/>
<path d="M359.365 354.359C359.365 354.479 278.91 354.568 179.691 354.568C80.4712 354.568 0 354.479 0 354.359C0 354.239 80.4372 354.15 179.691 354.15C278.944 354.15 359.365 354.247 359.365 354.359Z" fill="#263238"/>
</svg>
