<svg width="24" height="30" viewBox="0 0 24 30" fill="none" xmlns="http://www.w3.org/2000/svg">
<path fill-rule="evenodd" clip-rule="evenodd" d="M11.8334 15.928H11.8814C16.2734 15.928 19.8449 12.3565 19.8449 7.96451C19.8449 3.57251 16.2734 -0.000488281 11.8814 -0.000488281C7.48786 -0.000488281 3.91486 3.57251 3.91486 7.96001C3.89986 12.34 7.45036 15.9145 11.8334 15.928ZM6.05686 7.96451C6.05686 4.75301 8.66986 2.14151 11.8814 2.14151C15.0914 2.14151 17.7029 4.75301 17.7029 7.96451C17.7029 11.1745 15.0914 13.7875 11.8814 13.7875H11.8379C8.63986 13.7755 6.04636 11.1655 6.05686 7.96451Z" fill="green" fill-opacity="0.5"/>
<path fill-rule="evenodd" clip-rule="evenodd" d="M-0.00016737 24.2595C-0.00016737 29.805 8.94283 29.805 11.8813 29.805C16.9798 29.805 23.7598 29.2335 23.7598 24.2895C23.7598 18.744 14.8198 18.744 11.8813 18.744C6.78133 18.744 -0.00016737 19.3155 -0.00016737 24.2595ZM2.24983 24.2595C2.24983 22.092 5.48983 20.994 11.8813 20.994C18.2713 20.994 21.5098 22.1025 21.5098 24.2895C21.5098 26.457 18.2713 27.555 11.8813 27.555C5.48983 27.555 2.24983 26.4465 2.24983 24.2595Z" fill="green" fill-opacity="0.5"/>
</svg>
