<svg width="183" height="67" viewBox="0 0 183 67" fill="none" xmlns="http://www.w3.org/2000/svg">
  <g clip-path="url(#clip0_182_226)">
    <path d="M175.503 41.0678V35.3003V23.7776H158.075H146.455V18.0102H175.503V6.48145H146.455H129.027V18.0102V23.7776V35.3003H146.455H158.075V41.0678H129.027V52.5965H158.075H175.503V41.0678Z" fill="#3C3C3C"/>
    <path d="M123.22 6.48145H111.599V52.5905H123.22V6.48145Z" fill="#3C3C3C"/>
    <path d="M59.3164 6.48145V18.0102H94.1718V23.7776H70.9308H59.3164V35.3003V52.5965H70.9308V35.4758L88.3646 52.5965H105.792L87.6082 35.3003H94.1718H105.792V23.7776V18.0102V6.48145H94.1718H59.3164Z" fill="#3C3C3C"/>
    <path d="M24.455 35.3005H36.045V23.802H24.455V35.3005ZM27.3647 26.6585H33.1719V32.4198H27.3647V26.6585Z" fill="#3C3C3C"/>
    <path d="M18.6477 6.48145H8.47902C8.09474 6.48434 7.72688 6.63641 7.45422 6.90507C7.31858 7.03919 7.21101 7.1986 7.13773 7.37413C7.06444 7.54966 7.02689 7.73784 7.02722 7.92784V51.1501C7.02689 51.3401 7.06444 51.5283 7.13773 51.7038C7.21101 51.8794 7.31858 52.0388 7.45422 52.1729C7.7275 52.4399 8.09548 52.5898 8.47902 52.5905H36.0754V41.092H18.6477V6.48145Z" fill="#3C3C3C"/>
    <path d="M52.0514 6.48145H24.455V18.0102H41.8888V35.3003H53.4788V7.92784C53.4823 7.54706 53.3356 7.17999 53.0701 6.90507C52.7978 6.63946 52.4331 6.4878 52.0514 6.48145Z" fill="#3C3C3C"/>
    <path d="M53.5092 41.0679H41.8887V67.0061H53.5092V41.0679Z" fill="#3C3C3C"/>
    <path d="M23.241 0H1.4518C1.06725 0.00159297 0.698914 0.153854 0.426996 0.423626C0.155078 0.693397 0.00160564 1.05883 0 1.44034L0 23.0575H2.9036V4.29681C2.91155 3.91952 3.06783 3.56025 3.33906 3.29568C3.6103 3.0311 3.97502 2.88218 4.3554 2.88068H23.2654L23.241 0Z" fill="#3C3C3C"/>
    <path d="M180.096 37.4609V56.2217C180.095 56.6032 179.941 56.9686 179.669 57.2384C179.398 57.5082 179.029 57.6604 178.645 57.662H159.735V60.5185H181.524C181.716 60.5209 181.907 60.4854 182.086 60.4142C182.265 60.343 182.427 60.2373 182.564 60.1034C182.702 59.9695 182.811 59.81 182.886 59.634C182.96 59.458 182.999 59.2691 183 59.0781V37.4609H180.096Z" fill="#3C3C3C"/>
  </g>
  <defs>
    <clipPath id="clip0_182_226">
      <rect width="183" height="67" fill="white"/>
    </clipPath>
  </defs>
</svg>