<svg width="36" height="36" viewBox="0 0 36 36" fill="none" xmlns="http://www.w3.org/2000/svg">
<mask id="mask0_274_157" style="mask-type:luminance" maskUnits="userSpaceOnUse" x="3" y="4" width="30" height="28">
<path fill-rule="evenodd" clip-rule="evenodd" d="M3 4.50073H33V31.7497H3V4.50073Z" fill="white"/>
</mask>
<g mask="url(#mask0_274_157)">
<path fill-rule="evenodd" clip-rule="evenodd" d="M5.25 22.4692V25.5367C5.25 26.5957 5.661 27.5902 6.4095 28.3387C7.158 29.0872 8.154 29.4997 9.2115 29.4997H26.7855C28.9695 29.4997 30.7485 27.7237 30.75 25.5397V22.4677C28.821 21.9682 27.3915 20.2117 27.39 18.1282C27.39 16.0447 28.8195 14.2882 30.7485 13.7872L30.75 10.7197C30.7515 8.53273 28.977 6.75223 26.7915 6.75073H9.216C7.0305 6.75073 5.2515 8.52823 5.25 10.7137V13.8892C5.979 14.0632 6.6555 14.4217 7.218 14.9467C8.0715 15.7432 8.5635 16.8232 8.6055 17.9902C8.61 20.1892 7.1805 21.9652 5.25 22.4692ZM26.7855 31.7497H9.213C7.5525 31.7497 5.9925 31.1047 4.818 29.9302C3.645 28.7557 3 27.1957 3 25.5367V21.4867C3 20.8657 3.504 20.3617 4.125 20.3617C5.361 20.3602 6.36 19.3582 6.3585 18.1282C6.3375 17.5012 6.0975 16.9792 5.6835 16.5922C5.271 16.2052 4.737 15.9937 4.164 16.0252C3.8535 16.0282 3.5625 15.9217 3.3435 15.7102C3.1245 15.4987 3 15.2047 3 14.9002V10.7152C3.0015 7.28773 5.79 4.50073 9.216 4.50073H26.784C30.219 4.50223 33.003 7.29523 33 10.7212V14.7697C33 15.3907 32.496 15.8947 31.875 15.8947C30.6435 15.8947 29.64 16.8967 29.64 18.1267C29.6415 19.3597 30.6435 20.3617 31.875 20.3617C32.496 20.3617 33 20.8657 33 21.4867V25.5367C32.9985 28.9627 30.21 31.7497 26.7855 31.7497Z" fill="#3C3C3C" fill-opacity="0.5"/>
</g>
<path fill-rule="evenodd" clip-rule="evenodd" d="M15.1558 17.0723L15.9193 17.8163C16.3333 18.2228 16.5208 18.8018 16.4218 19.3673L16.2418 20.4143L17.1853 19.9178C17.6938 19.6463 18.3043 19.6478 18.8173 19.9208L19.7548 20.4128L19.5748 19.3643C19.4803 18.7898 19.6693 18.2153 20.0788 17.8163L20.8423 17.0723L19.7848 16.9193C19.2178 16.8368 18.7258 16.4798 18.4723 15.9623L17.9998 15.0068L17.5273 15.9638C17.2738 16.4798 16.7818 16.8368 16.2118 16.9193L15.1558 17.0723ZM20.4268 23.0813C20.1478 23.0813 19.8688 23.0138 19.6108 22.8773L17.9998 22.0328L16.3873 22.8788C15.7933 23.1893 15.0868 23.1398 14.5468 22.7468C14.0053 22.3523 13.7398 21.6983 13.8523 21.0383L14.1598 19.2443L12.8563 17.9738C12.3778 17.5073 12.2068 16.8218 12.4123 16.1858C12.6193 15.5483 13.1593 15.0908 13.8208 14.9948L15.6268 14.7308L16.4323 13.0973C16.7278 12.4973 17.3278 12.1238 17.9998 12.1238C18.6688 12.1238 19.2703 12.4973 19.5658 13.0988L20.3728 14.7308L22.1758 14.9948C22.8388 15.0908 23.3803 15.5483 23.5858 16.1858C23.7913 16.8218 23.6218 17.5073 23.1418 17.9753L21.8368 19.2458L22.1458 21.0383C22.2583 21.6998 21.9913 22.3553 21.4483 22.7483C21.1423 22.9688 20.7853 23.0813 20.4268 23.0813Z" fill="#3C3C3C" fill-opacity="0.5"/>
</svg>
