<svg width="22" height="23" viewBox="0 0 22 23" fill="none" xmlns="http://www.w3.org/2000/svg">
<path d="M20.5883 6.00008C19.8825 6.32091 19.1216 6.53175 18.3333 6.63258C19.14 6.14675 19.7633 5.37675 20.0566 4.45091C19.2958 4.90925 18.4525 5.23008 17.5633 5.41341C16.8391 4.62508 15.8216 4.16675 14.6666 4.16675C12.5125 4.16675 10.7525 5.92675 10.7525 8.09925C10.7525 8.41091 10.7891 8.71342 10.8533 8.99758C7.58996 8.83258 4.68412 7.26508 2.74995 4.89091C2.41079 5.46841 2.21829 6.14675 2.21829 6.86175C2.21829 8.22758 2.90579 9.43758 3.96912 10.1251C3.31829 10.1251 2.71329 9.94175 2.18162 9.66675V9.69425C2.18162 11.6009 3.53829 13.1959 5.33495 13.5534C4.75812 13.7113 4.15254 13.7332 3.56579 13.6176C3.81476 14.399 4.30236 15.0828 4.96005 15.5728C5.61774 16.0627 6.41245 16.3343 7.23245 16.3492C5.84245 17.4496 4.11945 18.0445 2.34662 18.0359C2.03495 18.0359 1.72329 18.0176 1.41162 17.9809C3.15329 19.0992 5.22495 19.7501 7.44329 19.7501C14.6666 19.7501 18.6358 13.7551 18.6358 8.55758C18.6358 8.38341 18.6358 8.21841 18.6266 8.04425C19.3966 7.49425 20.0566 6.79758 20.5883 6.00008Z" fill="white"/>
</svg>
