<svg xmlns="http://www.w3.org/2000/svg" width="655.359" height="655.359" fill-rule="evenodd" clip-rule="evenodd" image-rendering="optimizeQuality" shape-rendering="geometricPrecision" text-rendering="geometricPrecision" viewBox="0 0 6.827 6.827" id="zakat"><rect width="6.827" height="6.827" fill="#e64a19" rx="1.28" ry="1.28"></rect><path fill="#fff" fill-rule="nonzero" d="M2.034 3.602h2.759c.034 0 .062.028.062.062v1.687a.063.063 0 0 1-.062.062h-2.76a.063.063 0 0 1-.062-.062V3.664c0-.034.028-.062.063-.062z"></path><path fill="#fff" fill-rule="nonzero" d="M2.538 2.84H4.29c.023 0 .043.013.054.032l.5.758-.051.034.052-.034a.063.063 0 0 1-.053.097H2.034a.063.063 0 0 1-.05-.1l.5-.759a.062.062 0 0 1 .054-.028zm.517.38a.063.063 0 0 0 0 .126h.717a.063.063 0 0 0 0-.125h-.717zm.162-1.807h.4c.034 0 .062.028.062.063v.855h.078a.063.063 0 0 1 .044.106l-.34.34a.062.062 0 0 1-.088 0l-.34-.34a.063.063 0 0 1 .044-.106h.078v-.855c0-.035.028-.063.062-.063z"></path></svg>